%TF.GenerationSoftware,KiCad,Pcbnew,7.0.8*%
%TF.CreationDate,2023-10-12T16:07:18-07:00*%
%TF.ProjectId,Lab1_555TimerCircuit,4c616231-5f35-4353-9554-696d65724369,rev?*%
%TF.SameCoordinates,Original*%
%TF.FileFunction,Legend,Top*%
%TF.FilePolarity,Positive*%
%FSLAX46Y46*%
G04 Gerber Fmt 4.6, Leading zero omitted, Abs format (unit mm)*
G04 Created by KiCad (PCBNEW 7.0.8) date 2023-10-12 16:07:18*
%MOMM*%
%LPD*%
G01*
G04 APERTURE LIST*
%ADD10C,0.150000*%
%ADD11C,0.120000*%
G04 APERTURE END LIST*
D10*
X69488207Y-67674580D02*
X69440588Y-67722200D01*
X69440588Y-67722200D02*
X69297731Y-67769819D01*
X69297731Y-67769819D02*
X69202493Y-67769819D01*
X69202493Y-67769819D02*
X69059636Y-67722200D01*
X69059636Y-67722200D02*
X68964398Y-67626961D01*
X68964398Y-67626961D02*
X68916779Y-67531723D01*
X68916779Y-67531723D02*
X68869160Y-67341247D01*
X68869160Y-67341247D02*
X68869160Y-67198390D01*
X68869160Y-67198390D02*
X68916779Y-67007914D01*
X68916779Y-67007914D02*
X68964398Y-66912676D01*
X68964398Y-66912676D02*
X69059636Y-66817438D01*
X69059636Y-66817438D02*
X69202493Y-66769819D01*
X69202493Y-66769819D02*
X69297731Y-66769819D01*
X69297731Y-66769819D02*
X69440588Y-66817438D01*
X69440588Y-66817438D02*
X69488207Y-66865057D01*
X70345350Y-67769819D02*
X70345350Y-67246009D01*
X70345350Y-67246009D02*
X70297731Y-67150771D01*
X70297731Y-67150771D02*
X70202493Y-67103152D01*
X70202493Y-67103152D02*
X70012017Y-67103152D01*
X70012017Y-67103152D02*
X69916779Y-67150771D01*
X70345350Y-67722200D02*
X70250112Y-67769819D01*
X70250112Y-67769819D02*
X70012017Y-67769819D01*
X70012017Y-67769819D02*
X69916779Y-67722200D01*
X69916779Y-67722200D02*
X69869160Y-67626961D01*
X69869160Y-67626961D02*
X69869160Y-67531723D01*
X69869160Y-67531723D02*
X69916779Y-67436485D01*
X69916779Y-67436485D02*
X70012017Y-67388866D01*
X70012017Y-67388866D02*
X70250112Y-67388866D01*
X70250112Y-67388866D02*
X70345350Y-67341247D01*
X70821541Y-67769819D02*
X70821541Y-67103152D01*
X70821541Y-67293628D02*
X70869160Y-67198390D01*
X70869160Y-67198390D02*
X70916779Y-67150771D01*
X70916779Y-67150771D02*
X71012017Y-67103152D01*
X71012017Y-67103152D02*
X71107255Y-67103152D01*
X71297732Y-67103152D02*
X71678684Y-67103152D01*
X71440589Y-66769819D02*
X71440589Y-67626961D01*
X71440589Y-67626961D02*
X71488208Y-67722200D01*
X71488208Y-67722200D02*
X71583446Y-67769819D01*
X71583446Y-67769819D02*
X71678684Y-67769819D01*
X72392970Y-67722200D02*
X72297732Y-67769819D01*
X72297732Y-67769819D02*
X72107256Y-67769819D01*
X72107256Y-67769819D02*
X72012018Y-67722200D01*
X72012018Y-67722200D02*
X71964399Y-67626961D01*
X71964399Y-67626961D02*
X71964399Y-67246009D01*
X71964399Y-67246009D02*
X72012018Y-67150771D01*
X72012018Y-67150771D02*
X72107256Y-67103152D01*
X72107256Y-67103152D02*
X72297732Y-67103152D01*
X72297732Y-67103152D02*
X72392970Y-67150771D01*
X72392970Y-67150771D02*
X72440589Y-67246009D01*
X72440589Y-67246009D02*
X72440589Y-67341247D01*
X72440589Y-67341247D02*
X71964399Y-67436485D01*
X72869161Y-67769819D02*
X72869161Y-67103152D01*
X72869161Y-67293628D02*
X72916780Y-67198390D01*
X72916780Y-67198390D02*
X72964399Y-67150771D01*
X72964399Y-67150771D02*
X73059637Y-67103152D01*
X73059637Y-67103152D02*
X73154875Y-67103152D01*
X74250114Y-67769819D02*
X74250114Y-66769819D01*
X74250114Y-66769819D02*
X74583447Y-67484104D01*
X74583447Y-67484104D02*
X74916780Y-66769819D01*
X74916780Y-66769819D02*
X74916780Y-67769819D01*
X75821542Y-67769819D02*
X75821542Y-67246009D01*
X75821542Y-67246009D02*
X75773923Y-67150771D01*
X75773923Y-67150771D02*
X75678685Y-67103152D01*
X75678685Y-67103152D02*
X75488209Y-67103152D01*
X75488209Y-67103152D02*
X75392971Y-67150771D01*
X75821542Y-67722200D02*
X75726304Y-67769819D01*
X75726304Y-67769819D02*
X75488209Y-67769819D01*
X75488209Y-67769819D02*
X75392971Y-67722200D01*
X75392971Y-67722200D02*
X75345352Y-67626961D01*
X75345352Y-67626961D02*
X75345352Y-67531723D01*
X75345352Y-67531723D02*
X75392971Y-67436485D01*
X75392971Y-67436485D02*
X75488209Y-67388866D01*
X75488209Y-67388866D02*
X75726304Y-67388866D01*
X75726304Y-67388866D02*
X75821542Y-67341247D01*
X76440590Y-67769819D02*
X76345352Y-67722200D01*
X76345352Y-67722200D02*
X76297733Y-67626961D01*
X76297733Y-67626961D02*
X76297733Y-66769819D01*
X76964400Y-67769819D02*
X76869162Y-67722200D01*
X76869162Y-67722200D02*
X76821543Y-67674580D01*
X76821543Y-67674580D02*
X76773924Y-67579342D01*
X76773924Y-67579342D02*
X76773924Y-67293628D01*
X76773924Y-67293628D02*
X76821543Y-67198390D01*
X76821543Y-67198390D02*
X76869162Y-67150771D01*
X76869162Y-67150771D02*
X76964400Y-67103152D01*
X76964400Y-67103152D02*
X77107257Y-67103152D01*
X77107257Y-67103152D02*
X77202495Y-67150771D01*
X77202495Y-67150771D02*
X77250114Y-67198390D01*
X77250114Y-67198390D02*
X77297733Y-67293628D01*
X77297733Y-67293628D02*
X77297733Y-67579342D01*
X77297733Y-67579342D02*
X77250114Y-67674580D01*
X77250114Y-67674580D02*
X77202495Y-67722200D01*
X77202495Y-67722200D02*
X77107257Y-67769819D01*
X77107257Y-67769819D02*
X76964400Y-67769819D01*
X77726305Y-67103152D02*
X77726305Y-67769819D01*
X77726305Y-67198390D02*
X77773924Y-67150771D01*
X77773924Y-67150771D02*
X77869162Y-67103152D01*
X77869162Y-67103152D02*
X78012019Y-67103152D01*
X78012019Y-67103152D02*
X78107257Y-67150771D01*
X78107257Y-67150771D02*
X78154876Y-67246009D01*
X78154876Y-67246009D02*
X78154876Y-67769819D01*
X79012019Y-67722200D02*
X78916781Y-67769819D01*
X78916781Y-67769819D02*
X78726305Y-67769819D01*
X78726305Y-67769819D02*
X78631067Y-67722200D01*
X78631067Y-67722200D02*
X78583448Y-67626961D01*
X78583448Y-67626961D02*
X78583448Y-67246009D01*
X78583448Y-67246009D02*
X78631067Y-67150771D01*
X78631067Y-67150771D02*
X78726305Y-67103152D01*
X78726305Y-67103152D02*
X78916781Y-67103152D01*
X78916781Y-67103152D02*
X79012019Y-67150771D01*
X79012019Y-67150771D02*
X79059638Y-67246009D01*
X79059638Y-67246009D02*
X79059638Y-67341247D01*
X79059638Y-67341247D02*
X78583448Y-67436485D01*
X79392972Y-67103152D02*
X79631067Y-67769819D01*
X79869162Y-67103152D02*
X79631067Y-67769819D01*
X79631067Y-67769819D02*
X79535829Y-68007914D01*
X79535829Y-68007914D02*
X79488210Y-68055533D01*
X79488210Y-68055533D02*
X79392972Y-68103152D01*
X69392969Y-69379819D02*
X68916779Y-69379819D01*
X68916779Y-69379819D02*
X68916779Y-68379819D01*
X69869160Y-69379819D02*
X69773922Y-69332200D01*
X69773922Y-69332200D02*
X69726303Y-69284580D01*
X69726303Y-69284580D02*
X69678684Y-69189342D01*
X69678684Y-69189342D02*
X69678684Y-68903628D01*
X69678684Y-68903628D02*
X69726303Y-68808390D01*
X69726303Y-68808390D02*
X69773922Y-68760771D01*
X69773922Y-68760771D02*
X69869160Y-68713152D01*
X69869160Y-68713152D02*
X70012017Y-68713152D01*
X70012017Y-68713152D02*
X70107255Y-68760771D01*
X70107255Y-68760771D02*
X70154874Y-68808390D01*
X70154874Y-68808390D02*
X70202493Y-68903628D01*
X70202493Y-68903628D02*
X70202493Y-69189342D01*
X70202493Y-69189342D02*
X70154874Y-69284580D01*
X70154874Y-69284580D02*
X70107255Y-69332200D01*
X70107255Y-69332200D02*
X70012017Y-69379819D01*
X70012017Y-69379819D02*
X69869160Y-69379819D01*
X71059636Y-68713152D02*
X71059636Y-69522676D01*
X71059636Y-69522676D02*
X71012017Y-69617914D01*
X71012017Y-69617914D02*
X70964398Y-69665533D01*
X70964398Y-69665533D02*
X70869160Y-69713152D01*
X70869160Y-69713152D02*
X70726303Y-69713152D01*
X70726303Y-69713152D02*
X70631065Y-69665533D01*
X71059636Y-69332200D02*
X70964398Y-69379819D01*
X70964398Y-69379819D02*
X70773922Y-69379819D01*
X70773922Y-69379819D02*
X70678684Y-69332200D01*
X70678684Y-69332200D02*
X70631065Y-69284580D01*
X70631065Y-69284580D02*
X70583446Y-69189342D01*
X70583446Y-69189342D02*
X70583446Y-68903628D01*
X70583446Y-68903628D02*
X70631065Y-68808390D01*
X70631065Y-68808390D02*
X70678684Y-68760771D01*
X70678684Y-68760771D02*
X70773922Y-68713152D01*
X70773922Y-68713152D02*
X70964398Y-68713152D01*
X70964398Y-68713152D02*
X71059636Y-68760771D01*
X71964398Y-69379819D02*
X71964398Y-68856009D01*
X71964398Y-68856009D02*
X71916779Y-68760771D01*
X71916779Y-68760771D02*
X71821541Y-68713152D01*
X71821541Y-68713152D02*
X71631065Y-68713152D01*
X71631065Y-68713152D02*
X71535827Y-68760771D01*
X71964398Y-69332200D02*
X71869160Y-69379819D01*
X71869160Y-69379819D02*
X71631065Y-69379819D01*
X71631065Y-69379819D02*
X71535827Y-69332200D01*
X71535827Y-69332200D02*
X71488208Y-69236961D01*
X71488208Y-69236961D02*
X71488208Y-69141723D01*
X71488208Y-69141723D02*
X71535827Y-69046485D01*
X71535827Y-69046485D02*
X71631065Y-68998866D01*
X71631065Y-68998866D02*
X71869160Y-68998866D01*
X71869160Y-68998866D02*
X71964398Y-68951247D01*
X72440589Y-68713152D02*
X72440589Y-69379819D01*
X72440589Y-68808390D02*
X72488208Y-68760771D01*
X72488208Y-68760771D02*
X72583446Y-68713152D01*
X72583446Y-68713152D02*
X72726303Y-68713152D01*
X72726303Y-68713152D02*
X72821541Y-68760771D01*
X72821541Y-68760771D02*
X72869160Y-68856009D01*
X72869160Y-68856009D02*
X72869160Y-69379819D01*
X74107256Y-69379819D02*
X74107256Y-68379819D01*
X74107256Y-68379819D02*
X74440589Y-69094104D01*
X74440589Y-69094104D02*
X74773922Y-68379819D01*
X74773922Y-68379819D02*
X74773922Y-69379819D01*
X75678684Y-69379819D02*
X75678684Y-68856009D01*
X75678684Y-68856009D02*
X75631065Y-68760771D01*
X75631065Y-68760771D02*
X75535827Y-68713152D01*
X75535827Y-68713152D02*
X75345351Y-68713152D01*
X75345351Y-68713152D02*
X75250113Y-68760771D01*
X75678684Y-69332200D02*
X75583446Y-69379819D01*
X75583446Y-69379819D02*
X75345351Y-69379819D01*
X75345351Y-69379819D02*
X75250113Y-69332200D01*
X75250113Y-69332200D02*
X75202494Y-69236961D01*
X75202494Y-69236961D02*
X75202494Y-69141723D01*
X75202494Y-69141723D02*
X75250113Y-69046485D01*
X75250113Y-69046485D02*
X75345351Y-68998866D01*
X75345351Y-68998866D02*
X75583446Y-68998866D01*
X75583446Y-68998866D02*
X75678684Y-68951247D01*
X76059637Y-69379819D02*
X76583446Y-68713152D01*
X76059637Y-68713152D02*
X76583446Y-69379819D01*
X76869161Y-68713152D02*
X77059637Y-69379819D01*
X77059637Y-69379819D02*
X77250113Y-68903628D01*
X77250113Y-68903628D02*
X77440589Y-69379819D01*
X77440589Y-69379819D02*
X77631065Y-68713152D01*
X78392970Y-69332200D02*
X78297732Y-69379819D01*
X78297732Y-69379819D02*
X78107256Y-69379819D01*
X78107256Y-69379819D02*
X78012018Y-69332200D01*
X78012018Y-69332200D02*
X77964399Y-69236961D01*
X77964399Y-69236961D02*
X77964399Y-68856009D01*
X77964399Y-68856009D02*
X78012018Y-68760771D01*
X78012018Y-68760771D02*
X78107256Y-68713152D01*
X78107256Y-68713152D02*
X78297732Y-68713152D01*
X78297732Y-68713152D02*
X78392970Y-68760771D01*
X78392970Y-68760771D02*
X78440589Y-68856009D01*
X78440589Y-68856009D02*
X78440589Y-68951247D01*
X78440589Y-68951247D02*
X77964399Y-69046485D01*
X79012018Y-69379819D02*
X78916780Y-69332200D01*
X78916780Y-69332200D02*
X78869161Y-69236961D01*
X78869161Y-69236961D02*
X78869161Y-68379819D01*
X79535828Y-69379819D02*
X79440590Y-69332200D01*
X79440590Y-69332200D02*
X79392971Y-69236961D01*
X79392971Y-69236961D02*
X79392971Y-68379819D01*
X69488207Y-70989819D02*
X69154874Y-70513628D01*
X68916779Y-70989819D02*
X68916779Y-69989819D01*
X68916779Y-69989819D02*
X69297731Y-69989819D01*
X69297731Y-69989819D02*
X69392969Y-70037438D01*
X69392969Y-70037438D02*
X69440588Y-70085057D01*
X69440588Y-70085057D02*
X69488207Y-70180295D01*
X69488207Y-70180295D02*
X69488207Y-70323152D01*
X69488207Y-70323152D02*
X69440588Y-70418390D01*
X69440588Y-70418390D02*
X69392969Y-70466009D01*
X69392969Y-70466009D02*
X69297731Y-70513628D01*
X69297731Y-70513628D02*
X68916779Y-70513628D01*
X70297731Y-70942200D02*
X70202493Y-70989819D01*
X70202493Y-70989819D02*
X70012017Y-70989819D01*
X70012017Y-70989819D02*
X69916779Y-70942200D01*
X69916779Y-70942200D02*
X69869160Y-70846961D01*
X69869160Y-70846961D02*
X69869160Y-70466009D01*
X69869160Y-70466009D02*
X69916779Y-70370771D01*
X69916779Y-70370771D02*
X70012017Y-70323152D01*
X70012017Y-70323152D02*
X70202493Y-70323152D01*
X70202493Y-70323152D02*
X70297731Y-70370771D01*
X70297731Y-70370771D02*
X70345350Y-70466009D01*
X70345350Y-70466009D02*
X70345350Y-70561247D01*
X70345350Y-70561247D02*
X69869160Y-70656485D01*
X70678684Y-70989819D02*
X71202493Y-70323152D01*
X70678684Y-70323152D02*
X71202493Y-70989819D01*
X72916779Y-70989819D02*
X72583446Y-70513628D01*
X72345351Y-70989819D02*
X72345351Y-69989819D01*
X72345351Y-69989819D02*
X72726303Y-69989819D01*
X72726303Y-69989819D02*
X72821541Y-70037438D01*
X72821541Y-70037438D02*
X72869160Y-70085057D01*
X72869160Y-70085057D02*
X72916779Y-70180295D01*
X72916779Y-70180295D02*
X72916779Y-70323152D01*
X72916779Y-70323152D02*
X72869160Y-70418390D01*
X72869160Y-70418390D02*
X72821541Y-70466009D01*
X72821541Y-70466009D02*
X72726303Y-70513628D01*
X72726303Y-70513628D02*
X72345351Y-70513628D01*
X73773922Y-70989819D02*
X73773922Y-70466009D01*
X73773922Y-70466009D02*
X73726303Y-70370771D01*
X73726303Y-70370771D02*
X73631065Y-70323152D01*
X73631065Y-70323152D02*
X73440589Y-70323152D01*
X73440589Y-70323152D02*
X73345351Y-70370771D01*
X73773922Y-70942200D02*
X73678684Y-70989819D01*
X73678684Y-70989819D02*
X73440589Y-70989819D01*
X73440589Y-70989819D02*
X73345351Y-70942200D01*
X73345351Y-70942200D02*
X73297732Y-70846961D01*
X73297732Y-70846961D02*
X73297732Y-70751723D01*
X73297732Y-70751723D02*
X73345351Y-70656485D01*
X73345351Y-70656485D02*
X73440589Y-70608866D01*
X73440589Y-70608866D02*
X73678684Y-70608866D01*
X73678684Y-70608866D02*
X73773922Y-70561247D01*
X74678684Y-70942200D02*
X74583446Y-70989819D01*
X74583446Y-70989819D02*
X74392970Y-70989819D01*
X74392970Y-70989819D02*
X74297732Y-70942200D01*
X74297732Y-70942200D02*
X74250113Y-70894580D01*
X74250113Y-70894580D02*
X74202494Y-70799342D01*
X74202494Y-70799342D02*
X74202494Y-70513628D01*
X74202494Y-70513628D02*
X74250113Y-70418390D01*
X74250113Y-70418390D02*
X74297732Y-70370771D01*
X74297732Y-70370771D02*
X74392970Y-70323152D01*
X74392970Y-70323152D02*
X74583446Y-70323152D01*
X74583446Y-70323152D02*
X74678684Y-70370771D01*
X75107256Y-70989819D02*
X75107256Y-69989819D01*
X75202494Y-70608866D02*
X75488208Y-70989819D01*
X75488208Y-70323152D02*
X75107256Y-70704104D01*
X76297732Y-70942200D02*
X76202494Y-70989819D01*
X76202494Y-70989819D02*
X76012018Y-70989819D01*
X76012018Y-70989819D02*
X75916780Y-70942200D01*
X75916780Y-70942200D02*
X75869161Y-70846961D01*
X75869161Y-70846961D02*
X75869161Y-70466009D01*
X75869161Y-70466009D02*
X75916780Y-70370771D01*
X75916780Y-70370771D02*
X76012018Y-70323152D01*
X76012018Y-70323152D02*
X76202494Y-70323152D01*
X76202494Y-70323152D02*
X76297732Y-70370771D01*
X76297732Y-70370771D02*
X76345351Y-70466009D01*
X76345351Y-70466009D02*
X76345351Y-70561247D01*
X76345351Y-70561247D02*
X75869161Y-70656485D01*
X76773923Y-70989819D02*
X76773923Y-70323152D01*
X76773923Y-70513628D02*
X76821542Y-70418390D01*
X76821542Y-70418390D02*
X76869161Y-70370771D01*
X76869161Y-70370771D02*
X76964399Y-70323152D01*
X76964399Y-70323152D02*
X77059637Y-70323152D01*
X77345352Y-70942200D02*
X77440590Y-70989819D01*
X77440590Y-70989819D02*
X77631066Y-70989819D01*
X77631066Y-70989819D02*
X77726304Y-70942200D01*
X77726304Y-70942200D02*
X77773923Y-70846961D01*
X77773923Y-70846961D02*
X77773923Y-70799342D01*
X77773923Y-70799342D02*
X77726304Y-70704104D01*
X77726304Y-70704104D02*
X77631066Y-70656485D01*
X77631066Y-70656485D02*
X77488209Y-70656485D01*
X77488209Y-70656485D02*
X77392971Y-70608866D01*
X77392971Y-70608866D02*
X77345352Y-70513628D01*
X77345352Y-70513628D02*
X77345352Y-70466009D01*
X77345352Y-70466009D02*
X77392971Y-70370771D01*
X77392971Y-70370771D02*
X77488209Y-70323152D01*
X77488209Y-70323152D02*
X77631066Y-70323152D01*
X77631066Y-70323152D02*
X77726304Y-70370771D01*
X96856779Y-96294580D02*
X96904398Y-96342200D01*
X96904398Y-96342200D02*
X96856779Y-96389819D01*
X96856779Y-96389819D02*
X96809160Y-96342200D01*
X96809160Y-96342200D02*
X96856779Y-96294580D01*
X96856779Y-96294580D02*
X96856779Y-96389819D01*
X96856779Y-95770771D02*
X96904398Y-95818390D01*
X96904398Y-95818390D02*
X96856779Y-95866009D01*
X96856779Y-95866009D02*
X96809160Y-95818390D01*
X96809160Y-95818390D02*
X96856779Y-95770771D01*
X96856779Y-95770771D02*
X96856779Y-95866009D01*
X97237731Y-96770771D02*
X97285350Y-96723152D01*
X97285350Y-96723152D02*
X97380588Y-96580295D01*
X97380588Y-96580295D02*
X97428207Y-96485057D01*
X97428207Y-96485057D02*
X97475826Y-96342200D01*
X97475826Y-96342200D02*
X97523445Y-96104104D01*
X97523445Y-96104104D02*
X97523445Y-95913628D01*
X97523445Y-95913628D02*
X97475826Y-95675533D01*
X97475826Y-95675533D02*
X97428207Y-95532676D01*
X97428207Y-95532676D02*
X97380588Y-95437438D01*
X97380588Y-95437438D02*
X97285350Y-95294580D01*
X97285350Y-95294580D02*
X97237731Y-95246961D01*
X96856779Y-91214580D02*
X96904398Y-91262200D01*
X96904398Y-91262200D02*
X96856779Y-91309819D01*
X96856779Y-91309819D02*
X96809160Y-91262200D01*
X96809160Y-91262200D02*
X96856779Y-91214580D01*
X96856779Y-91214580D02*
X96856779Y-91309819D01*
X96856779Y-90690771D02*
X96904398Y-90738390D01*
X96904398Y-90738390D02*
X96856779Y-90786009D01*
X96856779Y-90786009D02*
X96809160Y-90738390D01*
X96809160Y-90738390D02*
X96856779Y-90690771D01*
X96856779Y-90690771D02*
X96856779Y-90786009D01*
X97237731Y-91690771D02*
X97285350Y-91643152D01*
X97285350Y-91643152D02*
X97380588Y-91500295D01*
X97380588Y-91500295D02*
X97428207Y-91405057D01*
X97428207Y-91405057D02*
X97475826Y-91262200D01*
X97475826Y-91262200D02*
X97523445Y-91024104D01*
X97523445Y-91024104D02*
X97523445Y-90833628D01*
X97523445Y-90833628D02*
X97475826Y-90595533D01*
X97475826Y-90595533D02*
X97428207Y-90452676D01*
X97428207Y-90452676D02*
X97380588Y-90357438D01*
X97380588Y-90357438D02*
X97285350Y-90214580D01*
X97285350Y-90214580D02*
X97237731Y-90166961D01*
X94316779Y-75974580D02*
X94364398Y-76022200D01*
X94364398Y-76022200D02*
X94316779Y-76069819D01*
X94316779Y-76069819D02*
X94269160Y-76022200D01*
X94269160Y-76022200D02*
X94316779Y-75974580D01*
X94316779Y-75974580D02*
X94316779Y-76069819D01*
X94316779Y-75450771D02*
X94364398Y-75498390D01*
X94364398Y-75498390D02*
X94316779Y-75546009D01*
X94316779Y-75546009D02*
X94269160Y-75498390D01*
X94269160Y-75498390D02*
X94316779Y-75450771D01*
X94316779Y-75450771D02*
X94316779Y-75546009D01*
X94697731Y-76450771D02*
X94745350Y-76403152D01*
X94745350Y-76403152D02*
X94840588Y-76260295D01*
X94840588Y-76260295D02*
X94888207Y-76165057D01*
X94888207Y-76165057D02*
X94935826Y-76022200D01*
X94935826Y-76022200D02*
X94983445Y-75784104D01*
X94983445Y-75784104D02*
X94983445Y-75593628D01*
X94983445Y-75593628D02*
X94935826Y-75355533D01*
X94935826Y-75355533D02*
X94888207Y-75212676D01*
X94888207Y-75212676D02*
X94840588Y-75117438D01*
X94840588Y-75117438D02*
X94745350Y-74974580D01*
X94745350Y-74974580D02*
X94697731Y-74926961D01*
X96856779Y-78514580D02*
X96904398Y-78562200D01*
X96904398Y-78562200D02*
X96856779Y-78609819D01*
X96856779Y-78609819D02*
X96809160Y-78562200D01*
X96809160Y-78562200D02*
X96856779Y-78514580D01*
X96856779Y-78514580D02*
X96856779Y-78609819D01*
X96856779Y-77990771D02*
X96904398Y-78038390D01*
X96904398Y-78038390D02*
X96856779Y-78086009D01*
X96856779Y-78086009D02*
X96809160Y-78038390D01*
X96809160Y-78038390D02*
X96856779Y-77990771D01*
X96856779Y-77990771D02*
X96856779Y-78086009D01*
X97237731Y-78990771D02*
X97285350Y-78943152D01*
X97285350Y-78943152D02*
X97380588Y-78800295D01*
X97380588Y-78800295D02*
X97428207Y-78705057D01*
X97428207Y-78705057D02*
X97475826Y-78562200D01*
X97475826Y-78562200D02*
X97523445Y-78324104D01*
X97523445Y-78324104D02*
X97523445Y-78133628D01*
X97523445Y-78133628D02*
X97475826Y-77895533D01*
X97475826Y-77895533D02*
X97428207Y-77752676D01*
X97428207Y-77752676D02*
X97380588Y-77657438D01*
X97380588Y-77657438D02*
X97285350Y-77514580D01*
X97285350Y-77514580D02*
X97237731Y-77466961D01*
X94316779Y-73434580D02*
X94364398Y-73482200D01*
X94364398Y-73482200D02*
X94316779Y-73529819D01*
X94316779Y-73529819D02*
X94269160Y-73482200D01*
X94269160Y-73482200D02*
X94316779Y-73434580D01*
X94316779Y-73434580D02*
X94316779Y-73529819D01*
X94316779Y-72910771D02*
X94364398Y-72958390D01*
X94364398Y-72958390D02*
X94316779Y-73006009D01*
X94316779Y-73006009D02*
X94269160Y-72958390D01*
X94269160Y-72958390D02*
X94316779Y-72910771D01*
X94316779Y-72910771D02*
X94316779Y-73006009D01*
X94697731Y-73910771D02*
X94745350Y-73863152D01*
X94745350Y-73863152D02*
X94840588Y-73720295D01*
X94840588Y-73720295D02*
X94888207Y-73625057D01*
X94888207Y-73625057D02*
X94935826Y-73482200D01*
X94935826Y-73482200D02*
X94983445Y-73244104D01*
X94983445Y-73244104D02*
X94983445Y-73053628D01*
X94983445Y-73053628D02*
X94935826Y-72815533D01*
X94935826Y-72815533D02*
X94888207Y-72672676D01*
X94888207Y-72672676D02*
X94840588Y-72577438D01*
X94840588Y-72577438D02*
X94745350Y-72434580D01*
X94745350Y-72434580D02*
X94697731Y-72386961D01*
X94316779Y-70894580D02*
X94364398Y-70942200D01*
X94364398Y-70942200D02*
X94316779Y-70989819D01*
X94316779Y-70989819D02*
X94269160Y-70942200D01*
X94269160Y-70942200D02*
X94316779Y-70894580D01*
X94316779Y-70894580D02*
X94316779Y-70989819D01*
X94316779Y-70370771D02*
X94364398Y-70418390D01*
X94364398Y-70418390D02*
X94316779Y-70466009D01*
X94316779Y-70466009D02*
X94269160Y-70418390D01*
X94269160Y-70418390D02*
X94316779Y-70370771D01*
X94316779Y-70370771D02*
X94316779Y-70466009D01*
X94697731Y-71370771D02*
X94745350Y-71323152D01*
X94745350Y-71323152D02*
X94840588Y-71180295D01*
X94840588Y-71180295D02*
X94888207Y-71085057D01*
X94888207Y-71085057D02*
X94935826Y-70942200D01*
X94935826Y-70942200D02*
X94983445Y-70704104D01*
X94983445Y-70704104D02*
X94983445Y-70513628D01*
X94983445Y-70513628D02*
X94935826Y-70275533D01*
X94935826Y-70275533D02*
X94888207Y-70132676D01*
X94888207Y-70132676D02*
X94840588Y-70037438D01*
X94840588Y-70037438D02*
X94745350Y-69894580D01*
X94745350Y-69894580D02*
X94697731Y-69846961D01*
X94316779Y-68354580D02*
X94364398Y-68402200D01*
X94364398Y-68402200D02*
X94316779Y-68449819D01*
X94316779Y-68449819D02*
X94269160Y-68402200D01*
X94269160Y-68402200D02*
X94316779Y-68354580D01*
X94316779Y-68354580D02*
X94316779Y-68449819D01*
X94316779Y-67830771D02*
X94364398Y-67878390D01*
X94364398Y-67878390D02*
X94316779Y-67926009D01*
X94316779Y-67926009D02*
X94269160Y-67878390D01*
X94269160Y-67878390D02*
X94316779Y-67830771D01*
X94316779Y-67830771D02*
X94316779Y-67926009D01*
X94697731Y-68830771D02*
X94745350Y-68783152D01*
X94745350Y-68783152D02*
X94840588Y-68640295D01*
X94840588Y-68640295D02*
X94888207Y-68545057D01*
X94888207Y-68545057D02*
X94935826Y-68402200D01*
X94935826Y-68402200D02*
X94983445Y-68164104D01*
X94983445Y-68164104D02*
X94983445Y-67973628D01*
X94983445Y-67973628D02*
X94935826Y-67735533D01*
X94935826Y-67735533D02*
X94888207Y-67592676D01*
X94888207Y-67592676D02*
X94840588Y-67497438D01*
X94840588Y-67497438D02*
X94745350Y-67354580D01*
X94745350Y-67354580D02*
X94697731Y-67306961D01*
X94316779Y-65814580D02*
X94364398Y-65862200D01*
X94364398Y-65862200D02*
X94316779Y-65909819D01*
X94316779Y-65909819D02*
X94269160Y-65862200D01*
X94269160Y-65862200D02*
X94316779Y-65814580D01*
X94316779Y-65814580D02*
X94316779Y-65909819D01*
X94316779Y-65290771D02*
X94364398Y-65338390D01*
X94364398Y-65338390D02*
X94316779Y-65386009D01*
X94316779Y-65386009D02*
X94269160Y-65338390D01*
X94269160Y-65338390D02*
X94316779Y-65290771D01*
X94316779Y-65290771D02*
X94316779Y-65386009D01*
X94697731Y-66290771D02*
X94745350Y-66243152D01*
X94745350Y-66243152D02*
X94840588Y-66100295D01*
X94840588Y-66100295D02*
X94888207Y-66005057D01*
X94888207Y-66005057D02*
X94935826Y-65862200D01*
X94935826Y-65862200D02*
X94983445Y-65624104D01*
X94983445Y-65624104D02*
X94983445Y-65433628D01*
X94983445Y-65433628D02*
X94935826Y-65195533D01*
X94935826Y-65195533D02*
X94888207Y-65052676D01*
X94888207Y-65052676D02*
X94840588Y-64957438D01*
X94840588Y-64957438D02*
X94745350Y-64814580D01*
X94745350Y-64814580D02*
X94697731Y-64766961D01*
X96856779Y-65814580D02*
X96904398Y-65862200D01*
X96904398Y-65862200D02*
X96856779Y-65909819D01*
X96856779Y-65909819D02*
X96809160Y-65862200D01*
X96809160Y-65862200D02*
X96856779Y-65814580D01*
X96856779Y-65814580D02*
X96856779Y-65909819D01*
X96856779Y-65290771D02*
X96904398Y-65338390D01*
X96904398Y-65338390D02*
X96856779Y-65386009D01*
X96856779Y-65386009D02*
X96809160Y-65338390D01*
X96809160Y-65338390D02*
X96856779Y-65290771D01*
X96856779Y-65290771D02*
X96856779Y-65386009D01*
X97237731Y-66290771D02*
X97285350Y-66243152D01*
X97285350Y-66243152D02*
X97380588Y-66100295D01*
X97380588Y-66100295D02*
X97428207Y-66005057D01*
X97428207Y-66005057D02*
X97475826Y-65862200D01*
X97475826Y-65862200D02*
X97523445Y-65624104D01*
X97523445Y-65624104D02*
X97523445Y-65433628D01*
X97523445Y-65433628D02*
X97475826Y-65195533D01*
X97475826Y-65195533D02*
X97428207Y-65052676D01*
X97428207Y-65052676D02*
X97380588Y-64957438D01*
X97380588Y-64957438D02*
X97285350Y-64814580D01*
X97285350Y-64814580D02*
X97237731Y-64766961D01*
X99396779Y-65814580D02*
X99444398Y-65862200D01*
X99444398Y-65862200D02*
X99396779Y-65909819D01*
X99396779Y-65909819D02*
X99349160Y-65862200D01*
X99349160Y-65862200D02*
X99396779Y-65814580D01*
X99396779Y-65814580D02*
X99396779Y-65909819D01*
X99396779Y-65290771D02*
X99444398Y-65338390D01*
X99444398Y-65338390D02*
X99396779Y-65386009D01*
X99396779Y-65386009D02*
X99349160Y-65338390D01*
X99349160Y-65338390D02*
X99396779Y-65290771D01*
X99396779Y-65290771D02*
X99396779Y-65386009D01*
X99777731Y-66290771D02*
X99825350Y-66243152D01*
X99825350Y-66243152D02*
X99920588Y-66100295D01*
X99920588Y-66100295D02*
X99968207Y-66005057D01*
X99968207Y-66005057D02*
X100015826Y-65862200D01*
X100015826Y-65862200D02*
X100063445Y-65624104D01*
X100063445Y-65624104D02*
X100063445Y-65433628D01*
X100063445Y-65433628D02*
X100015826Y-65195533D01*
X100015826Y-65195533D02*
X99968207Y-65052676D01*
X99968207Y-65052676D02*
X99920588Y-64957438D01*
X99920588Y-64957438D02*
X99825350Y-64814580D01*
X99825350Y-64814580D02*
X99777731Y-64766961D01*
X101936779Y-65814580D02*
X101984398Y-65862200D01*
X101984398Y-65862200D02*
X101936779Y-65909819D01*
X101936779Y-65909819D02*
X101889160Y-65862200D01*
X101889160Y-65862200D02*
X101936779Y-65814580D01*
X101936779Y-65814580D02*
X101936779Y-65909819D01*
X101936779Y-65290771D02*
X101984398Y-65338390D01*
X101984398Y-65338390D02*
X101936779Y-65386009D01*
X101936779Y-65386009D02*
X101889160Y-65338390D01*
X101889160Y-65338390D02*
X101936779Y-65290771D01*
X101936779Y-65290771D02*
X101936779Y-65386009D01*
X102317731Y-66290771D02*
X102365350Y-66243152D01*
X102365350Y-66243152D02*
X102460588Y-66100295D01*
X102460588Y-66100295D02*
X102508207Y-66005057D01*
X102508207Y-66005057D02*
X102555826Y-65862200D01*
X102555826Y-65862200D02*
X102603445Y-65624104D01*
X102603445Y-65624104D02*
X102603445Y-65433628D01*
X102603445Y-65433628D02*
X102555826Y-65195533D01*
X102555826Y-65195533D02*
X102508207Y-65052676D01*
X102508207Y-65052676D02*
X102460588Y-64957438D01*
X102460588Y-64957438D02*
X102365350Y-64814580D01*
X102365350Y-64814580D02*
X102317731Y-64766961D01*
X104476779Y-65814580D02*
X104524398Y-65862200D01*
X104524398Y-65862200D02*
X104476779Y-65909819D01*
X104476779Y-65909819D02*
X104429160Y-65862200D01*
X104429160Y-65862200D02*
X104476779Y-65814580D01*
X104476779Y-65814580D02*
X104476779Y-65909819D01*
X104476779Y-65290771D02*
X104524398Y-65338390D01*
X104524398Y-65338390D02*
X104476779Y-65386009D01*
X104476779Y-65386009D02*
X104429160Y-65338390D01*
X104429160Y-65338390D02*
X104476779Y-65290771D01*
X104476779Y-65290771D02*
X104476779Y-65386009D01*
X104857731Y-66290771D02*
X104905350Y-66243152D01*
X104905350Y-66243152D02*
X105000588Y-66100295D01*
X105000588Y-66100295D02*
X105048207Y-66005057D01*
X105048207Y-66005057D02*
X105095826Y-65862200D01*
X105095826Y-65862200D02*
X105143445Y-65624104D01*
X105143445Y-65624104D02*
X105143445Y-65433628D01*
X105143445Y-65433628D02*
X105095826Y-65195533D01*
X105095826Y-65195533D02*
X105048207Y-65052676D01*
X105048207Y-65052676D02*
X105000588Y-64957438D01*
X105000588Y-64957438D02*
X104905350Y-64814580D01*
X104905350Y-64814580D02*
X104857731Y-64766961D01*
X107016779Y-65814580D02*
X107064398Y-65862200D01*
X107064398Y-65862200D02*
X107016779Y-65909819D01*
X107016779Y-65909819D02*
X106969160Y-65862200D01*
X106969160Y-65862200D02*
X107016779Y-65814580D01*
X107016779Y-65814580D02*
X107016779Y-65909819D01*
X107016779Y-65290771D02*
X107064398Y-65338390D01*
X107064398Y-65338390D02*
X107016779Y-65386009D01*
X107016779Y-65386009D02*
X106969160Y-65338390D01*
X106969160Y-65338390D02*
X107016779Y-65290771D01*
X107016779Y-65290771D02*
X107016779Y-65386009D01*
X107397731Y-66290771D02*
X107445350Y-66243152D01*
X107445350Y-66243152D02*
X107540588Y-66100295D01*
X107540588Y-66100295D02*
X107588207Y-66005057D01*
X107588207Y-66005057D02*
X107635826Y-65862200D01*
X107635826Y-65862200D02*
X107683445Y-65624104D01*
X107683445Y-65624104D02*
X107683445Y-65433628D01*
X107683445Y-65433628D02*
X107635826Y-65195533D01*
X107635826Y-65195533D02*
X107588207Y-65052676D01*
X107588207Y-65052676D02*
X107540588Y-64957438D01*
X107540588Y-64957438D02*
X107445350Y-64814580D01*
X107445350Y-64814580D02*
X107397731Y-64766961D01*
X107016779Y-68354580D02*
X107064398Y-68402200D01*
X107064398Y-68402200D02*
X107016779Y-68449819D01*
X107016779Y-68449819D02*
X106969160Y-68402200D01*
X106969160Y-68402200D02*
X107016779Y-68354580D01*
X107016779Y-68354580D02*
X107016779Y-68449819D01*
X107016779Y-67830771D02*
X107064398Y-67878390D01*
X107064398Y-67878390D02*
X107016779Y-67926009D01*
X107016779Y-67926009D02*
X106969160Y-67878390D01*
X106969160Y-67878390D02*
X107016779Y-67830771D01*
X107016779Y-67830771D02*
X107016779Y-67926009D01*
X107397731Y-68830771D02*
X107445350Y-68783152D01*
X107445350Y-68783152D02*
X107540588Y-68640295D01*
X107540588Y-68640295D02*
X107588207Y-68545057D01*
X107588207Y-68545057D02*
X107635826Y-68402200D01*
X107635826Y-68402200D02*
X107683445Y-68164104D01*
X107683445Y-68164104D02*
X107683445Y-67973628D01*
X107683445Y-67973628D02*
X107635826Y-67735533D01*
X107635826Y-67735533D02*
X107588207Y-67592676D01*
X107588207Y-67592676D02*
X107540588Y-67497438D01*
X107540588Y-67497438D02*
X107445350Y-67354580D01*
X107445350Y-67354580D02*
X107397731Y-67306961D01*
X107016779Y-73434580D02*
X107064398Y-73482200D01*
X107064398Y-73482200D02*
X107016779Y-73529819D01*
X107016779Y-73529819D02*
X106969160Y-73482200D01*
X106969160Y-73482200D02*
X107016779Y-73434580D01*
X107016779Y-73434580D02*
X107016779Y-73529819D01*
X107016779Y-72910771D02*
X107064398Y-72958390D01*
X107064398Y-72958390D02*
X107016779Y-73006009D01*
X107016779Y-73006009D02*
X106969160Y-72958390D01*
X106969160Y-72958390D02*
X107016779Y-72910771D01*
X107016779Y-72910771D02*
X107016779Y-73006009D01*
X107397731Y-73910771D02*
X107445350Y-73863152D01*
X107445350Y-73863152D02*
X107540588Y-73720295D01*
X107540588Y-73720295D02*
X107588207Y-73625057D01*
X107588207Y-73625057D02*
X107635826Y-73482200D01*
X107635826Y-73482200D02*
X107683445Y-73244104D01*
X107683445Y-73244104D02*
X107683445Y-73053628D01*
X107683445Y-73053628D02*
X107635826Y-72815533D01*
X107635826Y-72815533D02*
X107588207Y-72672676D01*
X107588207Y-72672676D02*
X107540588Y-72577438D01*
X107540588Y-72577438D02*
X107445350Y-72434580D01*
X107445350Y-72434580D02*
X107397731Y-72386961D01*
X107016779Y-70894580D02*
X107064398Y-70942200D01*
X107064398Y-70942200D02*
X107016779Y-70989819D01*
X107016779Y-70989819D02*
X106969160Y-70942200D01*
X106969160Y-70942200D02*
X107016779Y-70894580D01*
X107016779Y-70894580D02*
X107016779Y-70989819D01*
X107016779Y-70370771D02*
X107064398Y-70418390D01*
X107064398Y-70418390D02*
X107016779Y-70466009D01*
X107016779Y-70466009D02*
X106969160Y-70418390D01*
X106969160Y-70418390D02*
X107016779Y-70370771D01*
X107016779Y-70370771D02*
X107016779Y-70466009D01*
X107397731Y-71370771D02*
X107445350Y-71323152D01*
X107445350Y-71323152D02*
X107540588Y-71180295D01*
X107540588Y-71180295D02*
X107588207Y-71085057D01*
X107588207Y-71085057D02*
X107635826Y-70942200D01*
X107635826Y-70942200D02*
X107683445Y-70704104D01*
X107683445Y-70704104D02*
X107683445Y-70513628D01*
X107683445Y-70513628D02*
X107635826Y-70275533D01*
X107635826Y-70275533D02*
X107588207Y-70132676D01*
X107588207Y-70132676D02*
X107540588Y-70037438D01*
X107540588Y-70037438D02*
X107445350Y-69894580D01*
X107445350Y-69894580D02*
X107397731Y-69846961D01*
X107016779Y-75974580D02*
X107064398Y-76022200D01*
X107064398Y-76022200D02*
X107016779Y-76069819D01*
X107016779Y-76069819D02*
X106969160Y-76022200D01*
X106969160Y-76022200D02*
X107016779Y-75974580D01*
X107016779Y-75974580D02*
X107016779Y-76069819D01*
X107016779Y-75450771D02*
X107064398Y-75498390D01*
X107064398Y-75498390D02*
X107016779Y-75546009D01*
X107016779Y-75546009D02*
X106969160Y-75498390D01*
X106969160Y-75498390D02*
X107016779Y-75450771D01*
X107016779Y-75450771D02*
X107016779Y-75546009D01*
X107397731Y-76450771D02*
X107445350Y-76403152D01*
X107445350Y-76403152D02*
X107540588Y-76260295D01*
X107540588Y-76260295D02*
X107588207Y-76165057D01*
X107588207Y-76165057D02*
X107635826Y-76022200D01*
X107635826Y-76022200D02*
X107683445Y-75784104D01*
X107683445Y-75784104D02*
X107683445Y-75593628D01*
X107683445Y-75593628D02*
X107635826Y-75355533D01*
X107635826Y-75355533D02*
X107588207Y-75212676D01*
X107588207Y-75212676D02*
X107540588Y-75117438D01*
X107540588Y-75117438D02*
X107445350Y-74974580D01*
X107445350Y-74974580D02*
X107397731Y-74926961D01*
X107016779Y-78514580D02*
X107064398Y-78562200D01*
X107064398Y-78562200D02*
X107016779Y-78609819D01*
X107016779Y-78609819D02*
X106969160Y-78562200D01*
X106969160Y-78562200D02*
X107016779Y-78514580D01*
X107016779Y-78514580D02*
X107016779Y-78609819D01*
X107016779Y-77990771D02*
X107064398Y-78038390D01*
X107064398Y-78038390D02*
X107016779Y-78086009D01*
X107016779Y-78086009D02*
X106969160Y-78038390D01*
X106969160Y-78038390D02*
X107016779Y-77990771D01*
X107016779Y-77990771D02*
X107016779Y-78086009D01*
X107397731Y-78990771D02*
X107445350Y-78943152D01*
X107445350Y-78943152D02*
X107540588Y-78800295D01*
X107540588Y-78800295D02*
X107588207Y-78705057D01*
X107588207Y-78705057D02*
X107635826Y-78562200D01*
X107635826Y-78562200D02*
X107683445Y-78324104D01*
X107683445Y-78324104D02*
X107683445Y-78133628D01*
X107683445Y-78133628D02*
X107635826Y-77895533D01*
X107635826Y-77895533D02*
X107588207Y-77752676D01*
X107588207Y-77752676D02*
X107540588Y-77657438D01*
X107540588Y-77657438D02*
X107445350Y-77514580D01*
X107445350Y-77514580D02*
X107397731Y-77466961D01*
X107016779Y-81054580D02*
X107064398Y-81102200D01*
X107064398Y-81102200D02*
X107016779Y-81149819D01*
X107016779Y-81149819D02*
X106969160Y-81102200D01*
X106969160Y-81102200D02*
X107016779Y-81054580D01*
X107016779Y-81054580D02*
X107016779Y-81149819D01*
X107016779Y-80530771D02*
X107064398Y-80578390D01*
X107064398Y-80578390D02*
X107016779Y-80626009D01*
X107016779Y-80626009D02*
X106969160Y-80578390D01*
X106969160Y-80578390D02*
X107016779Y-80530771D01*
X107016779Y-80530771D02*
X107016779Y-80626009D01*
X107397731Y-81530771D02*
X107445350Y-81483152D01*
X107445350Y-81483152D02*
X107540588Y-81340295D01*
X107540588Y-81340295D02*
X107588207Y-81245057D01*
X107588207Y-81245057D02*
X107635826Y-81102200D01*
X107635826Y-81102200D02*
X107683445Y-80864104D01*
X107683445Y-80864104D02*
X107683445Y-80673628D01*
X107683445Y-80673628D02*
X107635826Y-80435533D01*
X107635826Y-80435533D02*
X107588207Y-80292676D01*
X107588207Y-80292676D02*
X107540588Y-80197438D01*
X107540588Y-80197438D02*
X107445350Y-80054580D01*
X107445350Y-80054580D02*
X107397731Y-80006961D01*
X107016779Y-83594580D02*
X107064398Y-83642200D01*
X107064398Y-83642200D02*
X107016779Y-83689819D01*
X107016779Y-83689819D02*
X106969160Y-83642200D01*
X106969160Y-83642200D02*
X107016779Y-83594580D01*
X107016779Y-83594580D02*
X107016779Y-83689819D01*
X107016779Y-83070771D02*
X107064398Y-83118390D01*
X107064398Y-83118390D02*
X107016779Y-83166009D01*
X107016779Y-83166009D02*
X106969160Y-83118390D01*
X106969160Y-83118390D02*
X107016779Y-83070771D01*
X107016779Y-83070771D02*
X107016779Y-83166009D01*
X107397731Y-84070771D02*
X107445350Y-84023152D01*
X107445350Y-84023152D02*
X107540588Y-83880295D01*
X107540588Y-83880295D02*
X107588207Y-83785057D01*
X107588207Y-83785057D02*
X107635826Y-83642200D01*
X107635826Y-83642200D02*
X107683445Y-83404104D01*
X107683445Y-83404104D02*
X107683445Y-83213628D01*
X107683445Y-83213628D02*
X107635826Y-82975533D01*
X107635826Y-82975533D02*
X107588207Y-82832676D01*
X107588207Y-82832676D02*
X107540588Y-82737438D01*
X107540588Y-82737438D02*
X107445350Y-82594580D01*
X107445350Y-82594580D02*
X107397731Y-82546961D01*
X107016779Y-88674580D02*
X107064398Y-88722200D01*
X107064398Y-88722200D02*
X107016779Y-88769819D01*
X107016779Y-88769819D02*
X106969160Y-88722200D01*
X106969160Y-88722200D02*
X107016779Y-88674580D01*
X107016779Y-88674580D02*
X107016779Y-88769819D01*
X107016779Y-88150771D02*
X107064398Y-88198390D01*
X107064398Y-88198390D02*
X107016779Y-88246009D01*
X107016779Y-88246009D02*
X106969160Y-88198390D01*
X106969160Y-88198390D02*
X107016779Y-88150771D01*
X107016779Y-88150771D02*
X107016779Y-88246009D01*
X107397731Y-89150771D02*
X107445350Y-89103152D01*
X107445350Y-89103152D02*
X107540588Y-88960295D01*
X107540588Y-88960295D02*
X107588207Y-88865057D01*
X107588207Y-88865057D02*
X107635826Y-88722200D01*
X107635826Y-88722200D02*
X107683445Y-88484104D01*
X107683445Y-88484104D02*
X107683445Y-88293628D01*
X107683445Y-88293628D02*
X107635826Y-88055533D01*
X107635826Y-88055533D02*
X107588207Y-87912676D01*
X107588207Y-87912676D02*
X107540588Y-87817438D01*
X107540588Y-87817438D02*
X107445350Y-87674580D01*
X107445350Y-87674580D02*
X107397731Y-87626961D01*
X107016779Y-86134580D02*
X107064398Y-86182200D01*
X107064398Y-86182200D02*
X107016779Y-86229819D01*
X107016779Y-86229819D02*
X106969160Y-86182200D01*
X106969160Y-86182200D02*
X107016779Y-86134580D01*
X107016779Y-86134580D02*
X107016779Y-86229819D01*
X107016779Y-85610771D02*
X107064398Y-85658390D01*
X107064398Y-85658390D02*
X107016779Y-85706009D01*
X107016779Y-85706009D02*
X106969160Y-85658390D01*
X106969160Y-85658390D02*
X107016779Y-85610771D01*
X107016779Y-85610771D02*
X107016779Y-85706009D01*
X107397731Y-86610771D02*
X107445350Y-86563152D01*
X107445350Y-86563152D02*
X107540588Y-86420295D01*
X107540588Y-86420295D02*
X107588207Y-86325057D01*
X107588207Y-86325057D02*
X107635826Y-86182200D01*
X107635826Y-86182200D02*
X107683445Y-85944104D01*
X107683445Y-85944104D02*
X107683445Y-85753628D01*
X107683445Y-85753628D02*
X107635826Y-85515533D01*
X107635826Y-85515533D02*
X107588207Y-85372676D01*
X107588207Y-85372676D02*
X107540588Y-85277438D01*
X107540588Y-85277438D02*
X107445350Y-85134580D01*
X107445350Y-85134580D02*
X107397731Y-85086961D01*
X107016779Y-91214580D02*
X107064398Y-91262200D01*
X107064398Y-91262200D02*
X107016779Y-91309819D01*
X107016779Y-91309819D02*
X106969160Y-91262200D01*
X106969160Y-91262200D02*
X107016779Y-91214580D01*
X107016779Y-91214580D02*
X107016779Y-91309819D01*
X107016779Y-90690771D02*
X107064398Y-90738390D01*
X107064398Y-90738390D02*
X107016779Y-90786009D01*
X107016779Y-90786009D02*
X106969160Y-90738390D01*
X106969160Y-90738390D02*
X107016779Y-90690771D01*
X107016779Y-90690771D02*
X107016779Y-90786009D01*
X107397731Y-91690771D02*
X107445350Y-91643152D01*
X107445350Y-91643152D02*
X107540588Y-91500295D01*
X107540588Y-91500295D02*
X107588207Y-91405057D01*
X107588207Y-91405057D02*
X107635826Y-91262200D01*
X107635826Y-91262200D02*
X107683445Y-91024104D01*
X107683445Y-91024104D02*
X107683445Y-90833628D01*
X107683445Y-90833628D02*
X107635826Y-90595533D01*
X107635826Y-90595533D02*
X107588207Y-90452676D01*
X107588207Y-90452676D02*
X107540588Y-90357438D01*
X107540588Y-90357438D02*
X107445350Y-90214580D01*
X107445350Y-90214580D02*
X107397731Y-90166961D01*
X107016779Y-93754580D02*
X107064398Y-93802200D01*
X107064398Y-93802200D02*
X107016779Y-93849819D01*
X107016779Y-93849819D02*
X106969160Y-93802200D01*
X106969160Y-93802200D02*
X107016779Y-93754580D01*
X107016779Y-93754580D02*
X107016779Y-93849819D01*
X107016779Y-93230771D02*
X107064398Y-93278390D01*
X107064398Y-93278390D02*
X107016779Y-93326009D01*
X107016779Y-93326009D02*
X106969160Y-93278390D01*
X106969160Y-93278390D02*
X107016779Y-93230771D01*
X107016779Y-93230771D02*
X107016779Y-93326009D01*
X107397731Y-94230771D02*
X107445350Y-94183152D01*
X107445350Y-94183152D02*
X107540588Y-94040295D01*
X107540588Y-94040295D02*
X107588207Y-93945057D01*
X107588207Y-93945057D02*
X107635826Y-93802200D01*
X107635826Y-93802200D02*
X107683445Y-93564104D01*
X107683445Y-93564104D02*
X107683445Y-93373628D01*
X107683445Y-93373628D02*
X107635826Y-93135533D01*
X107635826Y-93135533D02*
X107588207Y-92992676D01*
X107588207Y-92992676D02*
X107540588Y-92897438D01*
X107540588Y-92897438D02*
X107445350Y-92754580D01*
X107445350Y-92754580D02*
X107397731Y-92706961D01*
X107016779Y-96294580D02*
X107064398Y-96342200D01*
X107064398Y-96342200D02*
X107016779Y-96389819D01*
X107016779Y-96389819D02*
X106969160Y-96342200D01*
X106969160Y-96342200D02*
X107016779Y-96294580D01*
X107016779Y-96294580D02*
X107016779Y-96389819D01*
X107016779Y-95770771D02*
X107064398Y-95818390D01*
X107064398Y-95818390D02*
X107016779Y-95866009D01*
X107016779Y-95866009D02*
X106969160Y-95818390D01*
X106969160Y-95818390D02*
X107016779Y-95770771D01*
X107016779Y-95770771D02*
X107016779Y-95866009D01*
X107397731Y-96770771D02*
X107445350Y-96723152D01*
X107445350Y-96723152D02*
X107540588Y-96580295D01*
X107540588Y-96580295D02*
X107588207Y-96485057D01*
X107588207Y-96485057D02*
X107635826Y-96342200D01*
X107635826Y-96342200D02*
X107683445Y-96104104D01*
X107683445Y-96104104D02*
X107683445Y-95913628D01*
X107683445Y-95913628D02*
X107635826Y-95675533D01*
X107635826Y-95675533D02*
X107588207Y-95532676D01*
X107588207Y-95532676D02*
X107540588Y-95437438D01*
X107540588Y-95437438D02*
X107445350Y-95294580D01*
X107445350Y-95294580D02*
X107397731Y-95246961D01*
X107016779Y-98834580D02*
X107064398Y-98882200D01*
X107064398Y-98882200D02*
X107016779Y-98929819D01*
X107016779Y-98929819D02*
X106969160Y-98882200D01*
X106969160Y-98882200D02*
X107016779Y-98834580D01*
X107016779Y-98834580D02*
X107016779Y-98929819D01*
X107016779Y-98310771D02*
X107064398Y-98358390D01*
X107064398Y-98358390D02*
X107016779Y-98406009D01*
X107016779Y-98406009D02*
X106969160Y-98358390D01*
X106969160Y-98358390D02*
X107016779Y-98310771D01*
X107016779Y-98310771D02*
X107016779Y-98406009D01*
X107397731Y-99310771D02*
X107445350Y-99263152D01*
X107445350Y-99263152D02*
X107540588Y-99120295D01*
X107540588Y-99120295D02*
X107588207Y-99025057D01*
X107588207Y-99025057D02*
X107635826Y-98882200D01*
X107635826Y-98882200D02*
X107683445Y-98644104D01*
X107683445Y-98644104D02*
X107683445Y-98453628D01*
X107683445Y-98453628D02*
X107635826Y-98215533D01*
X107635826Y-98215533D02*
X107588207Y-98072676D01*
X107588207Y-98072676D02*
X107540588Y-97977438D01*
X107540588Y-97977438D02*
X107445350Y-97834580D01*
X107445350Y-97834580D02*
X107397731Y-97786961D01*
X107016779Y-101374580D02*
X107064398Y-101422200D01*
X107064398Y-101422200D02*
X107016779Y-101469819D01*
X107016779Y-101469819D02*
X106969160Y-101422200D01*
X106969160Y-101422200D02*
X107016779Y-101374580D01*
X107016779Y-101374580D02*
X107016779Y-101469819D01*
X107016779Y-100850771D02*
X107064398Y-100898390D01*
X107064398Y-100898390D02*
X107016779Y-100946009D01*
X107016779Y-100946009D02*
X106969160Y-100898390D01*
X106969160Y-100898390D02*
X107016779Y-100850771D01*
X107016779Y-100850771D02*
X107016779Y-100946009D01*
X107397731Y-101850771D02*
X107445350Y-101803152D01*
X107445350Y-101803152D02*
X107540588Y-101660295D01*
X107540588Y-101660295D02*
X107588207Y-101565057D01*
X107588207Y-101565057D02*
X107635826Y-101422200D01*
X107635826Y-101422200D02*
X107683445Y-101184104D01*
X107683445Y-101184104D02*
X107683445Y-100993628D01*
X107683445Y-100993628D02*
X107635826Y-100755533D01*
X107635826Y-100755533D02*
X107588207Y-100612676D01*
X107588207Y-100612676D02*
X107540588Y-100517438D01*
X107540588Y-100517438D02*
X107445350Y-100374580D01*
X107445350Y-100374580D02*
X107397731Y-100326961D01*
X107016779Y-103914580D02*
X107064398Y-103962200D01*
X107064398Y-103962200D02*
X107016779Y-104009819D01*
X107016779Y-104009819D02*
X106969160Y-103962200D01*
X106969160Y-103962200D02*
X107016779Y-103914580D01*
X107016779Y-103914580D02*
X107016779Y-104009819D01*
X107016779Y-103390771D02*
X107064398Y-103438390D01*
X107064398Y-103438390D02*
X107016779Y-103486009D01*
X107016779Y-103486009D02*
X106969160Y-103438390D01*
X106969160Y-103438390D02*
X107016779Y-103390771D01*
X107016779Y-103390771D02*
X107016779Y-103486009D01*
X107397731Y-104390771D02*
X107445350Y-104343152D01*
X107445350Y-104343152D02*
X107540588Y-104200295D01*
X107540588Y-104200295D02*
X107588207Y-104105057D01*
X107588207Y-104105057D02*
X107635826Y-103962200D01*
X107635826Y-103962200D02*
X107683445Y-103724104D01*
X107683445Y-103724104D02*
X107683445Y-103533628D01*
X107683445Y-103533628D02*
X107635826Y-103295533D01*
X107635826Y-103295533D02*
X107588207Y-103152676D01*
X107588207Y-103152676D02*
X107540588Y-103057438D01*
X107540588Y-103057438D02*
X107445350Y-102914580D01*
X107445350Y-102914580D02*
X107397731Y-102866961D01*
X99396779Y-81054580D02*
X99444398Y-81102200D01*
X99444398Y-81102200D02*
X99396779Y-81149819D01*
X99396779Y-81149819D02*
X99349160Y-81102200D01*
X99349160Y-81102200D02*
X99396779Y-81054580D01*
X99396779Y-81054580D02*
X99396779Y-81149819D01*
X99396779Y-80530771D02*
X99444398Y-80578390D01*
X99444398Y-80578390D02*
X99396779Y-80626009D01*
X99396779Y-80626009D02*
X99349160Y-80578390D01*
X99349160Y-80578390D02*
X99396779Y-80530771D01*
X99396779Y-80530771D02*
X99396779Y-80626009D01*
X99777731Y-81530771D02*
X99825350Y-81483152D01*
X99825350Y-81483152D02*
X99920588Y-81340295D01*
X99920588Y-81340295D02*
X99968207Y-81245057D01*
X99968207Y-81245057D02*
X100015826Y-81102200D01*
X100015826Y-81102200D02*
X100063445Y-80864104D01*
X100063445Y-80864104D02*
X100063445Y-80673628D01*
X100063445Y-80673628D02*
X100015826Y-80435533D01*
X100015826Y-80435533D02*
X99968207Y-80292676D01*
X99968207Y-80292676D02*
X99920588Y-80197438D01*
X99920588Y-80197438D02*
X99825350Y-80054580D01*
X99825350Y-80054580D02*
X99777731Y-80006961D01*
X99396779Y-83594580D02*
X99444398Y-83642200D01*
X99444398Y-83642200D02*
X99396779Y-83689819D01*
X99396779Y-83689819D02*
X99349160Y-83642200D01*
X99349160Y-83642200D02*
X99396779Y-83594580D01*
X99396779Y-83594580D02*
X99396779Y-83689819D01*
X99396779Y-83070771D02*
X99444398Y-83118390D01*
X99444398Y-83118390D02*
X99396779Y-83166009D01*
X99396779Y-83166009D02*
X99349160Y-83118390D01*
X99349160Y-83118390D02*
X99396779Y-83070771D01*
X99396779Y-83070771D02*
X99396779Y-83166009D01*
X99777731Y-84070771D02*
X99825350Y-84023152D01*
X99825350Y-84023152D02*
X99920588Y-83880295D01*
X99920588Y-83880295D02*
X99968207Y-83785057D01*
X99968207Y-83785057D02*
X100015826Y-83642200D01*
X100015826Y-83642200D02*
X100063445Y-83404104D01*
X100063445Y-83404104D02*
X100063445Y-83213628D01*
X100063445Y-83213628D02*
X100015826Y-82975533D01*
X100015826Y-82975533D02*
X99968207Y-82832676D01*
X99968207Y-82832676D02*
X99920588Y-82737438D01*
X99920588Y-82737438D02*
X99825350Y-82594580D01*
X99825350Y-82594580D02*
X99777731Y-82546961D01*
X99396779Y-86134580D02*
X99444398Y-86182200D01*
X99444398Y-86182200D02*
X99396779Y-86229819D01*
X99396779Y-86229819D02*
X99349160Y-86182200D01*
X99349160Y-86182200D02*
X99396779Y-86134580D01*
X99396779Y-86134580D02*
X99396779Y-86229819D01*
X99396779Y-85610771D02*
X99444398Y-85658390D01*
X99444398Y-85658390D02*
X99396779Y-85706009D01*
X99396779Y-85706009D02*
X99349160Y-85658390D01*
X99349160Y-85658390D02*
X99396779Y-85610771D01*
X99396779Y-85610771D02*
X99396779Y-85706009D01*
X99777731Y-86610771D02*
X99825350Y-86563152D01*
X99825350Y-86563152D02*
X99920588Y-86420295D01*
X99920588Y-86420295D02*
X99968207Y-86325057D01*
X99968207Y-86325057D02*
X100015826Y-86182200D01*
X100015826Y-86182200D02*
X100063445Y-85944104D01*
X100063445Y-85944104D02*
X100063445Y-85753628D01*
X100063445Y-85753628D02*
X100015826Y-85515533D01*
X100015826Y-85515533D02*
X99968207Y-85372676D01*
X99968207Y-85372676D02*
X99920588Y-85277438D01*
X99920588Y-85277438D02*
X99825350Y-85134580D01*
X99825350Y-85134580D02*
X99777731Y-85086961D01*
X99396779Y-88674580D02*
X99444398Y-88722200D01*
X99444398Y-88722200D02*
X99396779Y-88769819D01*
X99396779Y-88769819D02*
X99349160Y-88722200D01*
X99349160Y-88722200D02*
X99396779Y-88674580D01*
X99396779Y-88674580D02*
X99396779Y-88769819D01*
X99396779Y-88150771D02*
X99444398Y-88198390D01*
X99444398Y-88198390D02*
X99396779Y-88246009D01*
X99396779Y-88246009D02*
X99349160Y-88198390D01*
X99349160Y-88198390D02*
X99396779Y-88150771D01*
X99396779Y-88150771D02*
X99396779Y-88246009D01*
X99777731Y-89150771D02*
X99825350Y-89103152D01*
X99825350Y-89103152D02*
X99920588Y-88960295D01*
X99920588Y-88960295D02*
X99968207Y-88865057D01*
X99968207Y-88865057D02*
X100015826Y-88722200D01*
X100015826Y-88722200D02*
X100063445Y-88484104D01*
X100063445Y-88484104D02*
X100063445Y-88293628D01*
X100063445Y-88293628D02*
X100015826Y-88055533D01*
X100015826Y-88055533D02*
X99968207Y-87912676D01*
X99968207Y-87912676D02*
X99920588Y-87817438D01*
X99920588Y-87817438D02*
X99825350Y-87674580D01*
X99825350Y-87674580D02*
X99777731Y-87626961D01*
X99396779Y-103914580D02*
X99444398Y-103962200D01*
X99444398Y-103962200D02*
X99396779Y-104009819D01*
X99396779Y-104009819D02*
X99349160Y-103962200D01*
X99349160Y-103962200D02*
X99396779Y-103914580D01*
X99396779Y-103914580D02*
X99396779Y-104009819D01*
X99396779Y-103390771D02*
X99444398Y-103438390D01*
X99444398Y-103438390D02*
X99396779Y-103486009D01*
X99396779Y-103486009D02*
X99349160Y-103438390D01*
X99349160Y-103438390D02*
X99396779Y-103390771D01*
X99396779Y-103390771D02*
X99396779Y-103486009D01*
X99777731Y-104390771D02*
X99825350Y-104343152D01*
X99825350Y-104343152D02*
X99920588Y-104200295D01*
X99920588Y-104200295D02*
X99968207Y-104105057D01*
X99968207Y-104105057D02*
X100015826Y-103962200D01*
X100015826Y-103962200D02*
X100063445Y-103724104D01*
X100063445Y-103724104D02*
X100063445Y-103533628D01*
X100063445Y-103533628D02*
X100015826Y-103295533D01*
X100015826Y-103295533D02*
X99968207Y-103152676D01*
X99968207Y-103152676D02*
X99920588Y-103057438D01*
X99920588Y-103057438D02*
X99825350Y-102914580D01*
X99825350Y-102914580D02*
X99777731Y-102866961D01*
X101936779Y-103914580D02*
X101984398Y-103962200D01*
X101984398Y-103962200D02*
X101936779Y-104009819D01*
X101936779Y-104009819D02*
X101889160Y-103962200D01*
X101889160Y-103962200D02*
X101936779Y-103914580D01*
X101936779Y-103914580D02*
X101936779Y-104009819D01*
X101936779Y-103390771D02*
X101984398Y-103438390D01*
X101984398Y-103438390D02*
X101936779Y-103486009D01*
X101936779Y-103486009D02*
X101889160Y-103438390D01*
X101889160Y-103438390D02*
X101936779Y-103390771D01*
X101936779Y-103390771D02*
X101936779Y-103486009D01*
X102317731Y-104390771D02*
X102365350Y-104343152D01*
X102365350Y-104343152D02*
X102460588Y-104200295D01*
X102460588Y-104200295D02*
X102508207Y-104105057D01*
X102508207Y-104105057D02*
X102555826Y-103962200D01*
X102555826Y-103962200D02*
X102603445Y-103724104D01*
X102603445Y-103724104D02*
X102603445Y-103533628D01*
X102603445Y-103533628D02*
X102555826Y-103295533D01*
X102555826Y-103295533D02*
X102508207Y-103152676D01*
X102508207Y-103152676D02*
X102460588Y-103057438D01*
X102460588Y-103057438D02*
X102365350Y-102914580D01*
X102365350Y-102914580D02*
X102317731Y-102866961D01*
X104476779Y-103914580D02*
X104524398Y-103962200D01*
X104524398Y-103962200D02*
X104476779Y-104009819D01*
X104476779Y-104009819D02*
X104429160Y-103962200D01*
X104429160Y-103962200D02*
X104476779Y-103914580D01*
X104476779Y-103914580D02*
X104476779Y-104009819D01*
X104476779Y-103390771D02*
X104524398Y-103438390D01*
X104524398Y-103438390D02*
X104476779Y-103486009D01*
X104476779Y-103486009D02*
X104429160Y-103438390D01*
X104429160Y-103438390D02*
X104476779Y-103390771D01*
X104476779Y-103390771D02*
X104476779Y-103486009D01*
X104857731Y-104390771D02*
X104905350Y-104343152D01*
X104905350Y-104343152D02*
X105000588Y-104200295D01*
X105000588Y-104200295D02*
X105048207Y-104105057D01*
X105048207Y-104105057D02*
X105095826Y-103962200D01*
X105095826Y-103962200D02*
X105143445Y-103724104D01*
X105143445Y-103724104D02*
X105143445Y-103533628D01*
X105143445Y-103533628D02*
X105095826Y-103295533D01*
X105095826Y-103295533D02*
X105048207Y-103152676D01*
X105048207Y-103152676D02*
X105000588Y-103057438D01*
X105000588Y-103057438D02*
X104905350Y-102914580D01*
X104905350Y-102914580D02*
X104857731Y-102866961D01*
X104476779Y-101374580D02*
X104524398Y-101422200D01*
X104524398Y-101422200D02*
X104476779Y-101469819D01*
X104476779Y-101469819D02*
X104429160Y-101422200D01*
X104429160Y-101422200D02*
X104476779Y-101374580D01*
X104476779Y-101374580D02*
X104476779Y-101469819D01*
X104476779Y-100850771D02*
X104524398Y-100898390D01*
X104524398Y-100898390D02*
X104476779Y-100946009D01*
X104476779Y-100946009D02*
X104429160Y-100898390D01*
X104429160Y-100898390D02*
X104476779Y-100850771D01*
X104476779Y-100850771D02*
X104476779Y-100946009D01*
X104857731Y-101850771D02*
X104905350Y-101803152D01*
X104905350Y-101803152D02*
X105000588Y-101660295D01*
X105000588Y-101660295D02*
X105048207Y-101565057D01*
X105048207Y-101565057D02*
X105095826Y-101422200D01*
X105095826Y-101422200D02*
X105143445Y-101184104D01*
X105143445Y-101184104D02*
X105143445Y-100993628D01*
X105143445Y-100993628D02*
X105095826Y-100755533D01*
X105095826Y-100755533D02*
X105048207Y-100612676D01*
X105048207Y-100612676D02*
X105000588Y-100517438D01*
X105000588Y-100517438D02*
X104905350Y-100374580D01*
X104905350Y-100374580D02*
X104857731Y-100326961D01*
X101936779Y-101374580D02*
X101984398Y-101422200D01*
X101984398Y-101422200D02*
X101936779Y-101469819D01*
X101936779Y-101469819D02*
X101889160Y-101422200D01*
X101889160Y-101422200D02*
X101936779Y-101374580D01*
X101936779Y-101374580D02*
X101936779Y-101469819D01*
X101936779Y-100850771D02*
X101984398Y-100898390D01*
X101984398Y-100898390D02*
X101936779Y-100946009D01*
X101936779Y-100946009D02*
X101889160Y-100898390D01*
X101889160Y-100898390D02*
X101936779Y-100850771D01*
X101936779Y-100850771D02*
X101936779Y-100946009D01*
X102317731Y-101850771D02*
X102365350Y-101803152D01*
X102365350Y-101803152D02*
X102460588Y-101660295D01*
X102460588Y-101660295D02*
X102508207Y-101565057D01*
X102508207Y-101565057D02*
X102555826Y-101422200D01*
X102555826Y-101422200D02*
X102603445Y-101184104D01*
X102603445Y-101184104D02*
X102603445Y-100993628D01*
X102603445Y-100993628D02*
X102555826Y-100755533D01*
X102555826Y-100755533D02*
X102508207Y-100612676D01*
X102508207Y-100612676D02*
X102460588Y-100517438D01*
X102460588Y-100517438D02*
X102365350Y-100374580D01*
X102365350Y-100374580D02*
X102317731Y-100326961D01*
X99396779Y-101374580D02*
X99444398Y-101422200D01*
X99444398Y-101422200D02*
X99396779Y-101469819D01*
X99396779Y-101469819D02*
X99349160Y-101422200D01*
X99349160Y-101422200D02*
X99396779Y-101374580D01*
X99396779Y-101374580D02*
X99396779Y-101469819D01*
X99396779Y-100850771D02*
X99444398Y-100898390D01*
X99444398Y-100898390D02*
X99396779Y-100946009D01*
X99396779Y-100946009D02*
X99349160Y-100898390D01*
X99349160Y-100898390D02*
X99396779Y-100850771D01*
X99396779Y-100850771D02*
X99396779Y-100946009D01*
X99777731Y-101850771D02*
X99825350Y-101803152D01*
X99825350Y-101803152D02*
X99920588Y-101660295D01*
X99920588Y-101660295D02*
X99968207Y-101565057D01*
X99968207Y-101565057D02*
X100015826Y-101422200D01*
X100015826Y-101422200D02*
X100063445Y-101184104D01*
X100063445Y-101184104D02*
X100063445Y-100993628D01*
X100063445Y-100993628D02*
X100015826Y-100755533D01*
X100015826Y-100755533D02*
X99968207Y-100612676D01*
X99968207Y-100612676D02*
X99920588Y-100517438D01*
X99920588Y-100517438D02*
X99825350Y-100374580D01*
X99825350Y-100374580D02*
X99777731Y-100326961D01*
X99396779Y-98834580D02*
X99444398Y-98882200D01*
X99444398Y-98882200D02*
X99396779Y-98929819D01*
X99396779Y-98929819D02*
X99349160Y-98882200D01*
X99349160Y-98882200D02*
X99396779Y-98834580D01*
X99396779Y-98834580D02*
X99396779Y-98929819D01*
X99396779Y-98310771D02*
X99444398Y-98358390D01*
X99444398Y-98358390D02*
X99396779Y-98406009D01*
X99396779Y-98406009D02*
X99349160Y-98358390D01*
X99349160Y-98358390D02*
X99396779Y-98310771D01*
X99396779Y-98310771D02*
X99396779Y-98406009D01*
X99777731Y-99310771D02*
X99825350Y-99263152D01*
X99825350Y-99263152D02*
X99920588Y-99120295D01*
X99920588Y-99120295D02*
X99968207Y-99025057D01*
X99968207Y-99025057D02*
X100015826Y-98882200D01*
X100015826Y-98882200D02*
X100063445Y-98644104D01*
X100063445Y-98644104D02*
X100063445Y-98453628D01*
X100063445Y-98453628D02*
X100015826Y-98215533D01*
X100015826Y-98215533D02*
X99968207Y-98072676D01*
X99968207Y-98072676D02*
X99920588Y-97977438D01*
X99920588Y-97977438D02*
X99825350Y-97834580D01*
X99825350Y-97834580D02*
X99777731Y-97786961D01*
X101936779Y-98834580D02*
X101984398Y-98882200D01*
X101984398Y-98882200D02*
X101936779Y-98929819D01*
X101936779Y-98929819D02*
X101889160Y-98882200D01*
X101889160Y-98882200D02*
X101936779Y-98834580D01*
X101936779Y-98834580D02*
X101936779Y-98929819D01*
X101936779Y-98310771D02*
X101984398Y-98358390D01*
X101984398Y-98358390D02*
X101936779Y-98406009D01*
X101936779Y-98406009D02*
X101889160Y-98358390D01*
X101889160Y-98358390D02*
X101936779Y-98310771D01*
X101936779Y-98310771D02*
X101936779Y-98406009D01*
X102317731Y-99310771D02*
X102365350Y-99263152D01*
X102365350Y-99263152D02*
X102460588Y-99120295D01*
X102460588Y-99120295D02*
X102508207Y-99025057D01*
X102508207Y-99025057D02*
X102555826Y-98882200D01*
X102555826Y-98882200D02*
X102603445Y-98644104D01*
X102603445Y-98644104D02*
X102603445Y-98453628D01*
X102603445Y-98453628D02*
X102555826Y-98215533D01*
X102555826Y-98215533D02*
X102508207Y-98072676D01*
X102508207Y-98072676D02*
X102460588Y-97977438D01*
X102460588Y-97977438D02*
X102365350Y-97834580D01*
X102365350Y-97834580D02*
X102317731Y-97786961D01*
X104476779Y-98834580D02*
X104524398Y-98882200D01*
X104524398Y-98882200D02*
X104476779Y-98929819D01*
X104476779Y-98929819D02*
X104429160Y-98882200D01*
X104429160Y-98882200D02*
X104476779Y-98834580D01*
X104476779Y-98834580D02*
X104476779Y-98929819D01*
X104476779Y-98310771D02*
X104524398Y-98358390D01*
X104524398Y-98358390D02*
X104476779Y-98406009D01*
X104476779Y-98406009D02*
X104429160Y-98358390D01*
X104429160Y-98358390D02*
X104476779Y-98310771D01*
X104476779Y-98310771D02*
X104476779Y-98406009D01*
X104857731Y-99310771D02*
X104905350Y-99263152D01*
X104905350Y-99263152D02*
X105000588Y-99120295D01*
X105000588Y-99120295D02*
X105048207Y-99025057D01*
X105048207Y-99025057D02*
X105095826Y-98882200D01*
X105095826Y-98882200D02*
X105143445Y-98644104D01*
X105143445Y-98644104D02*
X105143445Y-98453628D01*
X105143445Y-98453628D02*
X105095826Y-98215533D01*
X105095826Y-98215533D02*
X105048207Y-98072676D01*
X105048207Y-98072676D02*
X105000588Y-97977438D01*
X105000588Y-97977438D02*
X104905350Y-97834580D01*
X104905350Y-97834580D02*
X104857731Y-97786961D01*
X104476779Y-96294580D02*
X104524398Y-96342200D01*
X104524398Y-96342200D02*
X104476779Y-96389819D01*
X104476779Y-96389819D02*
X104429160Y-96342200D01*
X104429160Y-96342200D02*
X104476779Y-96294580D01*
X104476779Y-96294580D02*
X104476779Y-96389819D01*
X104476779Y-95770771D02*
X104524398Y-95818390D01*
X104524398Y-95818390D02*
X104476779Y-95866009D01*
X104476779Y-95866009D02*
X104429160Y-95818390D01*
X104429160Y-95818390D02*
X104476779Y-95770771D01*
X104476779Y-95770771D02*
X104476779Y-95866009D01*
X104857731Y-96770771D02*
X104905350Y-96723152D01*
X104905350Y-96723152D02*
X105000588Y-96580295D01*
X105000588Y-96580295D02*
X105048207Y-96485057D01*
X105048207Y-96485057D02*
X105095826Y-96342200D01*
X105095826Y-96342200D02*
X105143445Y-96104104D01*
X105143445Y-96104104D02*
X105143445Y-95913628D01*
X105143445Y-95913628D02*
X105095826Y-95675533D01*
X105095826Y-95675533D02*
X105048207Y-95532676D01*
X105048207Y-95532676D02*
X105000588Y-95437438D01*
X105000588Y-95437438D02*
X104905350Y-95294580D01*
X104905350Y-95294580D02*
X104857731Y-95246961D01*
X101936779Y-96294580D02*
X101984398Y-96342200D01*
X101984398Y-96342200D02*
X101936779Y-96389819D01*
X101936779Y-96389819D02*
X101889160Y-96342200D01*
X101889160Y-96342200D02*
X101936779Y-96294580D01*
X101936779Y-96294580D02*
X101936779Y-96389819D01*
X101936779Y-95770771D02*
X101984398Y-95818390D01*
X101984398Y-95818390D02*
X101936779Y-95866009D01*
X101936779Y-95866009D02*
X101889160Y-95818390D01*
X101889160Y-95818390D02*
X101936779Y-95770771D01*
X101936779Y-95770771D02*
X101936779Y-95866009D01*
X102317731Y-96770771D02*
X102365350Y-96723152D01*
X102365350Y-96723152D02*
X102460588Y-96580295D01*
X102460588Y-96580295D02*
X102508207Y-96485057D01*
X102508207Y-96485057D02*
X102555826Y-96342200D01*
X102555826Y-96342200D02*
X102603445Y-96104104D01*
X102603445Y-96104104D02*
X102603445Y-95913628D01*
X102603445Y-95913628D02*
X102555826Y-95675533D01*
X102555826Y-95675533D02*
X102508207Y-95532676D01*
X102508207Y-95532676D02*
X102460588Y-95437438D01*
X102460588Y-95437438D02*
X102365350Y-95294580D01*
X102365350Y-95294580D02*
X102317731Y-95246961D01*
X99396779Y-96294580D02*
X99444398Y-96342200D01*
X99444398Y-96342200D02*
X99396779Y-96389819D01*
X99396779Y-96389819D02*
X99349160Y-96342200D01*
X99349160Y-96342200D02*
X99396779Y-96294580D01*
X99396779Y-96294580D02*
X99396779Y-96389819D01*
X99396779Y-95770771D02*
X99444398Y-95818390D01*
X99444398Y-95818390D02*
X99396779Y-95866009D01*
X99396779Y-95866009D02*
X99349160Y-95818390D01*
X99349160Y-95818390D02*
X99396779Y-95770771D01*
X99396779Y-95770771D02*
X99396779Y-95866009D01*
X99777731Y-96770771D02*
X99825350Y-96723152D01*
X99825350Y-96723152D02*
X99920588Y-96580295D01*
X99920588Y-96580295D02*
X99968207Y-96485057D01*
X99968207Y-96485057D02*
X100015826Y-96342200D01*
X100015826Y-96342200D02*
X100063445Y-96104104D01*
X100063445Y-96104104D02*
X100063445Y-95913628D01*
X100063445Y-95913628D02*
X100015826Y-95675533D01*
X100015826Y-95675533D02*
X99968207Y-95532676D01*
X99968207Y-95532676D02*
X99920588Y-95437438D01*
X99920588Y-95437438D02*
X99825350Y-95294580D01*
X99825350Y-95294580D02*
X99777731Y-95246961D01*
X96856779Y-93754580D02*
X96904398Y-93802200D01*
X96904398Y-93802200D02*
X96856779Y-93849819D01*
X96856779Y-93849819D02*
X96809160Y-93802200D01*
X96809160Y-93802200D02*
X96856779Y-93754580D01*
X96856779Y-93754580D02*
X96856779Y-93849819D01*
X96856779Y-93230771D02*
X96904398Y-93278390D01*
X96904398Y-93278390D02*
X96856779Y-93326009D01*
X96856779Y-93326009D02*
X96809160Y-93278390D01*
X96809160Y-93278390D02*
X96856779Y-93230771D01*
X96856779Y-93230771D02*
X96856779Y-93326009D01*
X97237731Y-94230771D02*
X97285350Y-94183152D01*
X97285350Y-94183152D02*
X97380588Y-94040295D01*
X97380588Y-94040295D02*
X97428207Y-93945057D01*
X97428207Y-93945057D02*
X97475826Y-93802200D01*
X97475826Y-93802200D02*
X97523445Y-93564104D01*
X97523445Y-93564104D02*
X97523445Y-93373628D01*
X97523445Y-93373628D02*
X97475826Y-93135533D01*
X97475826Y-93135533D02*
X97428207Y-92992676D01*
X97428207Y-92992676D02*
X97380588Y-92897438D01*
X97380588Y-92897438D02*
X97285350Y-92754580D01*
X97285350Y-92754580D02*
X97237731Y-92706961D01*
X99396779Y-93754580D02*
X99444398Y-93802200D01*
X99444398Y-93802200D02*
X99396779Y-93849819D01*
X99396779Y-93849819D02*
X99349160Y-93802200D01*
X99349160Y-93802200D02*
X99396779Y-93754580D01*
X99396779Y-93754580D02*
X99396779Y-93849819D01*
X99396779Y-93230771D02*
X99444398Y-93278390D01*
X99444398Y-93278390D02*
X99396779Y-93326009D01*
X99396779Y-93326009D02*
X99349160Y-93278390D01*
X99349160Y-93278390D02*
X99396779Y-93230771D01*
X99396779Y-93230771D02*
X99396779Y-93326009D01*
X99777731Y-94230771D02*
X99825350Y-94183152D01*
X99825350Y-94183152D02*
X99920588Y-94040295D01*
X99920588Y-94040295D02*
X99968207Y-93945057D01*
X99968207Y-93945057D02*
X100015826Y-93802200D01*
X100015826Y-93802200D02*
X100063445Y-93564104D01*
X100063445Y-93564104D02*
X100063445Y-93373628D01*
X100063445Y-93373628D02*
X100015826Y-93135533D01*
X100015826Y-93135533D02*
X99968207Y-92992676D01*
X99968207Y-92992676D02*
X99920588Y-92897438D01*
X99920588Y-92897438D02*
X99825350Y-92754580D01*
X99825350Y-92754580D02*
X99777731Y-92706961D01*
X99396779Y-91214580D02*
X99444398Y-91262200D01*
X99444398Y-91262200D02*
X99396779Y-91309819D01*
X99396779Y-91309819D02*
X99349160Y-91262200D01*
X99349160Y-91262200D02*
X99396779Y-91214580D01*
X99396779Y-91214580D02*
X99396779Y-91309819D01*
X99396779Y-90690771D02*
X99444398Y-90738390D01*
X99444398Y-90738390D02*
X99396779Y-90786009D01*
X99396779Y-90786009D02*
X99349160Y-90738390D01*
X99349160Y-90738390D02*
X99396779Y-90690771D01*
X99396779Y-90690771D02*
X99396779Y-90786009D01*
X99777731Y-91690771D02*
X99825350Y-91643152D01*
X99825350Y-91643152D02*
X99920588Y-91500295D01*
X99920588Y-91500295D02*
X99968207Y-91405057D01*
X99968207Y-91405057D02*
X100015826Y-91262200D01*
X100015826Y-91262200D02*
X100063445Y-91024104D01*
X100063445Y-91024104D02*
X100063445Y-90833628D01*
X100063445Y-90833628D02*
X100015826Y-90595533D01*
X100015826Y-90595533D02*
X99968207Y-90452676D01*
X99968207Y-90452676D02*
X99920588Y-90357438D01*
X99920588Y-90357438D02*
X99825350Y-90214580D01*
X99825350Y-90214580D02*
X99777731Y-90166961D01*
X101936779Y-93754580D02*
X101984398Y-93802200D01*
X101984398Y-93802200D02*
X101936779Y-93849819D01*
X101936779Y-93849819D02*
X101889160Y-93802200D01*
X101889160Y-93802200D02*
X101936779Y-93754580D01*
X101936779Y-93754580D02*
X101936779Y-93849819D01*
X101936779Y-93230771D02*
X101984398Y-93278390D01*
X101984398Y-93278390D02*
X101936779Y-93326009D01*
X101936779Y-93326009D02*
X101889160Y-93278390D01*
X101889160Y-93278390D02*
X101936779Y-93230771D01*
X101936779Y-93230771D02*
X101936779Y-93326009D01*
X102317731Y-94230771D02*
X102365350Y-94183152D01*
X102365350Y-94183152D02*
X102460588Y-94040295D01*
X102460588Y-94040295D02*
X102508207Y-93945057D01*
X102508207Y-93945057D02*
X102555826Y-93802200D01*
X102555826Y-93802200D02*
X102603445Y-93564104D01*
X102603445Y-93564104D02*
X102603445Y-93373628D01*
X102603445Y-93373628D02*
X102555826Y-93135533D01*
X102555826Y-93135533D02*
X102508207Y-92992676D01*
X102508207Y-92992676D02*
X102460588Y-92897438D01*
X102460588Y-92897438D02*
X102365350Y-92754580D01*
X102365350Y-92754580D02*
X102317731Y-92706961D01*
X104476779Y-93754580D02*
X104524398Y-93802200D01*
X104524398Y-93802200D02*
X104476779Y-93849819D01*
X104476779Y-93849819D02*
X104429160Y-93802200D01*
X104429160Y-93802200D02*
X104476779Y-93754580D01*
X104476779Y-93754580D02*
X104476779Y-93849819D01*
X104476779Y-93230771D02*
X104524398Y-93278390D01*
X104524398Y-93278390D02*
X104476779Y-93326009D01*
X104476779Y-93326009D02*
X104429160Y-93278390D01*
X104429160Y-93278390D02*
X104476779Y-93230771D01*
X104476779Y-93230771D02*
X104476779Y-93326009D01*
X104857731Y-94230771D02*
X104905350Y-94183152D01*
X104905350Y-94183152D02*
X105000588Y-94040295D01*
X105000588Y-94040295D02*
X105048207Y-93945057D01*
X105048207Y-93945057D02*
X105095826Y-93802200D01*
X105095826Y-93802200D02*
X105143445Y-93564104D01*
X105143445Y-93564104D02*
X105143445Y-93373628D01*
X105143445Y-93373628D02*
X105095826Y-93135533D01*
X105095826Y-93135533D02*
X105048207Y-92992676D01*
X105048207Y-92992676D02*
X105000588Y-92897438D01*
X105000588Y-92897438D02*
X104905350Y-92754580D01*
X104905350Y-92754580D02*
X104857731Y-92706961D01*
X104476779Y-91214580D02*
X104524398Y-91262200D01*
X104524398Y-91262200D02*
X104476779Y-91309819D01*
X104476779Y-91309819D02*
X104429160Y-91262200D01*
X104429160Y-91262200D02*
X104476779Y-91214580D01*
X104476779Y-91214580D02*
X104476779Y-91309819D01*
X104476779Y-90690771D02*
X104524398Y-90738390D01*
X104524398Y-90738390D02*
X104476779Y-90786009D01*
X104476779Y-90786009D02*
X104429160Y-90738390D01*
X104429160Y-90738390D02*
X104476779Y-90690771D01*
X104476779Y-90690771D02*
X104476779Y-90786009D01*
X104857731Y-91690771D02*
X104905350Y-91643152D01*
X104905350Y-91643152D02*
X105000588Y-91500295D01*
X105000588Y-91500295D02*
X105048207Y-91405057D01*
X105048207Y-91405057D02*
X105095826Y-91262200D01*
X105095826Y-91262200D02*
X105143445Y-91024104D01*
X105143445Y-91024104D02*
X105143445Y-90833628D01*
X105143445Y-90833628D02*
X105095826Y-90595533D01*
X105095826Y-90595533D02*
X105048207Y-90452676D01*
X105048207Y-90452676D02*
X105000588Y-90357438D01*
X105000588Y-90357438D02*
X104905350Y-90214580D01*
X104905350Y-90214580D02*
X104857731Y-90166961D01*
X104476779Y-88674580D02*
X104524398Y-88722200D01*
X104524398Y-88722200D02*
X104476779Y-88769819D01*
X104476779Y-88769819D02*
X104429160Y-88722200D01*
X104429160Y-88722200D02*
X104476779Y-88674580D01*
X104476779Y-88674580D02*
X104476779Y-88769819D01*
X104476779Y-88150771D02*
X104524398Y-88198390D01*
X104524398Y-88198390D02*
X104476779Y-88246009D01*
X104476779Y-88246009D02*
X104429160Y-88198390D01*
X104429160Y-88198390D02*
X104476779Y-88150771D01*
X104476779Y-88150771D02*
X104476779Y-88246009D01*
X104857731Y-89150771D02*
X104905350Y-89103152D01*
X104905350Y-89103152D02*
X105000588Y-88960295D01*
X105000588Y-88960295D02*
X105048207Y-88865057D01*
X105048207Y-88865057D02*
X105095826Y-88722200D01*
X105095826Y-88722200D02*
X105143445Y-88484104D01*
X105143445Y-88484104D02*
X105143445Y-88293628D01*
X105143445Y-88293628D02*
X105095826Y-88055533D01*
X105095826Y-88055533D02*
X105048207Y-87912676D01*
X105048207Y-87912676D02*
X105000588Y-87817438D01*
X105000588Y-87817438D02*
X104905350Y-87674580D01*
X104905350Y-87674580D02*
X104857731Y-87626961D01*
X101936779Y-91214580D02*
X101984398Y-91262200D01*
X101984398Y-91262200D02*
X101936779Y-91309819D01*
X101936779Y-91309819D02*
X101889160Y-91262200D01*
X101889160Y-91262200D02*
X101936779Y-91214580D01*
X101936779Y-91214580D02*
X101936779Y-91309819D01*
X101936779Y-90690771D02*
X101984398Y-90738390D01*
X101984398Y-90738390D02*
X101936779Y-90786009D01*
X101936779Y-90786009D02*
X101889160Y-90738390D01*
X101889160Y-90738390D02*
X101936779Y-90690771D01*
X101936779Y-90690771D02*
X101936779Y-90786009D01*
X102317731Y-91690771D02*
X102365350Y-91643152D01*
X102365350Y-91643152D02*
X102460588Y-91500295D01*
X102460588Y-91500295D02*
X102508207Y-91405057D01*
X102508207Y-91405057D02*
X102555826Y-91262200D01*
X102555826Y-91262200D02*
X102603445Y-91024104D01*
X102603445Y-91024104D02*
X102603445Y-90833628D01*
X102603445Y-90833628D02*
X102555826Y-90595533D01*
X102555826Y-90595533D02*
X102508207Y-90452676D01*
X102508207Y-90452676D02*
X102460588Y-90357438D01*
X102460588Y-90357438D02*
X102365350Y-90214580D01*
X102365350Y-90214580D02*
X102317731Y-90166961D01*
X101936779Y-88674580D02*
X101984398Y-88722200D01*
X101984398Y-88722200D02*
X101936779Y-88769819D01*
X101936779Y-88769819D02*
X101889160Y-88722200D01*
X101889160Y-88722200D02*
X101936779Y-88674580D01*
X101936779Y-88674580D02*
X101936779Y-88769819D01*
X101936779Y-88150771D02*
X101984398Y-88198390D01*
X101984398Y-88198390D02*
X101936779Y-88246009D01*
X101936779Y-88246009D02*
X101889160Y-88198390D01*
X101889160Y-88198390D02*
X101936779Y-88150771D01*
X101936779Y-88150771D02*
X101936779Y-88246009D01*
X102317731Y-89150771D02*
X102365350Y-89103152D01*
X102365350Y-89103152D02*
X102460588Y-88960295D01*
X102460588Y-88960295D02*
X102508207Y-88865057D01*
X102508207Y-88865057D02*
X102555826Y-88722200D01*
X102555826Y-88722200D02*
X102603445Y-88484104D01*
X102603445Y-88484104D02*
X102603445Y-88293628D01*
X102603445Y-88293628D02*
X102555826Y-88055533D01*
X102555826Y-88055533D02*
X102508207Y-87912676D01*
X102508207Y-87912676D02*
X102460588Y-87817438D01*
X102460588Y-87817438D02*
X102365350Y-87674580D01*
X102365350Y-87674580D02*
X102317731Y-87626961D01*
X101936779Y-86134580D02*
X101984398Y-86182200D01*
X101984398Y-86182200D02*
X101936779Y-86229819D01*
X101936779Y-86229819D02*
X101889160Y-86182200D01*
X101889160Y-86182200D02*
X101936779Y-86134580D01*
X101936779Y-86134580D02*
X101936779Y-86229819D01*
X101936779Y-85610771D02*
X101984398Y-85658390D01*
X101984398Y-85658390D02*
X101936779Y-85706009D01*
X101936779Y-85706009D02*
X101889160Y-85658390D01*
X101889160Y-85658390D02*
X101936779Y-85610771D01*
X101936779Y-85610771D02*
X101936779Y-85706009D01*
X102317731Y-86610771D02*
X102365350Y-86563152D01*
X102365350Y-86563152D02*
X102460588Y-86420295D01*
X102460588Y-86420295D02*
X102508207Y-86325057D01*
X102508207Y-86325057D02*
X102555826Y-86182200D01*
X102555826Y-86182200D02*
X102603445Y-85944104D01*
X102603445Y-85944104D02*
X102603445Y-85753628D01*
X102603445Y-85753628D02*
X102555826Y-85515533D01*
X102555826Y-85515533D02*
X102508207Y-85372676D01*
X102508207Y-85372676D02*
X102460588Y-85277438D01*
X102460588Y-85277438D02*
X102365350Y-85134580D01*
X102365350Y-85134580D02*
X102317731Y-85086961D01*
X104476779Y-86134580D02*
X104524398Y-86182200D01*
X104524398Y-86182200D02*
X104476779Y-86229819D01*
X104476779Y-86229819D02*
X104429160Y-86182200D01*
X104429160Y-86182200D02*
X104476779Y-86134580D01*
X104476779Y-86134580D02*
X104476779Y-86229819D01*
X104476779Y-85610771D02*
X104524398Y-85658390D01*
X104524398Y-85658390D02*
X104476779Y-85706009D01*
X104476779Y-85706009D02*
X104429160Y-85658390D01*
X104429160Y-85658390D02*
X104476779Y-85610771D01*
X104476779Y-85610771D02*
X104476779Y-85706009D01*
X104857731Y-86610771D02*
X104905350Y-86563152D01*
X104905350Y-86563152D02*
X105000588Y-86420295D01*
X105000588Y-86420295D02*
X105048207Y-86325057D01*
X105048207Y-86325057D02*
X105095826Y-86182200D01*
X105095826Y-86182200D02*
X105143445Y-85944104D01*
X105143445Y-85944104D02*
X105143445Y-85753628D01*
X105143445Y-85753628D02*
X105095826Y-85515533D01*
X105095826Y-85515533D02*
X105048207Y-85372676D01*
X105048207Y-85372676D02*
X105000588Y-85277438D01*
X105000588Y-85277438D02*
X104905350Y-85134580D01*
X104905350Y-85134580D02*
X104857731Y-85086961D01*
X104476779Y-83594580D02*
X104524398Y-83642200D01*
X104524398Y-83642200D02*
X104476779Y-83689819D01*
X104476779Y-83689819D02*
X104429160Y-83642200D01*
X104429160Y-83642200D02*
X104476779Y-83594580D01*
X104476779Y-83594580D02*
X104476779Y-83689819D01*
X104476779Y-83070771D02*
X104524398Y-83118390D01*
X104524398Y-83118390D02*
X104476779Y-83166009D01*
X104476779Y-83166009D02*
X104429160Y-83118390D01*
X104429160Y-83118390D02*
X104476779Y-83070771D01*
X104476779Y-83070771D02*
X104476779Y-83166009D01*
X104857731Y-84070771D02*
X104905350Y-84023152D01*
X104905350Y-84023152D02*
X105000588Y-83880295D01*
X105000588Y-83880295D02*
X105048207Y-83785057D01*
X105048207Y-83785057D02*
X105095826Y-83642200D01*
X105095826Y-83642200D02*
X105143445Y-83404104D01*
X105143445Y-83404104D02*
X105143445Y-83213628D01*
X105143445Y-83213628D02*
X105095826Y-82975533D01*
X105095826Y-82975533D02*
X105048207Y-82832676D01*
X105048207Y-82832676D02*
X105000588Y-82737438D01*
X105000588Y-82737438D02*
X104905350Y-82594580D01*
X104905350Y-82594580D02*
X104857731Y-82546961D01*
X101936779Y-83594580D02*
X101984398Y-83642200D01*
X101984398Y-83642200D02*
X101936779Y-83689819D01*
X101936779Y-83689819D02*
X101889160Y-83642200D01*
X101889160Y-83642200D02*
X101936779Y-83594580D01*
X101936779Y-83594580D02*
X101936779Y-83689819D01*
X101936779Y-83070771D02*
X101984398Y-83118390D01*
X101984398Y-83118390D02*
X101936779Y-83166009D01*
X101936779Y-83166009D02*
X101889160Y-83118390D01*
X101889160Y-83118390D02*
X101936779Y-83070771D01*
X101936779Y-83070771D02*
X101936779Y-83166009D01*
X102317731Y-84070771D02*
X102365350Y-84023152D01*
X102365350Y-84023152D02*
X102460588Y-83880295D01*
X102460588Y-83880295D02*
X102508207Y-83785057D01*
X102508207Y-83785057D02*
X102555826Y-83642200D01*
X102555826Y-83642200D02*
X102603445Y-83404104D01*
X102603445Y-83404104D02*
X102603445Y-83213628D01*
X102603445Y-83213628D02*
X102555826Y-82975533D01*
X102555826Y-82975533D02*
X102508207Y-82832676D01*
X102508207Y-82832676D02*
X102460588Y-82737438D01*
X102460588Y-82737438D02*
X102365350Y-82594580D01*
X102365350Y-82594580D02*
X102317731Y-82546961D01*
X101936779Y-81054580D02*
X101984398Y-81102200D01*
X101984398Y-81102200D02*
X101936779Y-81149819D01*
X101936779Y-81149819D02*
X101889160Y-81102200D01*
X101889160Y-81102200D02*
X101936779Y-81054580D01*
X101936779Y-81054580D02*
X101936779Y-81149819D01*
X101936779Y-80530771D02*
X101984398Y-80578390D01*
X101984398Y-80578390D02*
X101936779Y-80626009D01*
X101936779Y-80626009D02*
X101889160Y-80578390D01*
X101889160Y-80578390D02*
X101936779Y-80530771D01*
X101936779Y-80530771D02*
X101936779Y-80626009D01*
X102317731Y-81530771D02*
X102365350Y-81483152D01*
X102365350Y-81483152D02*
X102460588Y-81340295D01*
X102460588Y-81340295D02*
X102508207Y-81245057D01*
X102508207Y-81245057D02*
X102555826Y-81102200D01*
X102555826Y-81102200D02*
X102603445Y-80864104D01*
X102603445Y-80864104D02*
X102603445Y-80673628D01*
X102603445Y-80673628D02*
X102555826Y-80435533D01*
X102555826Y-80435533D02*
X102508207Y-80292676D01*
X102508207Y-80292676D02*
X102460588Y-80197438D01*
X102460588Y-80197438D02*
X102365350Y-80054580D01*
X102365350Y-80054580D02*
X102317731Y-80006961D01*
X104476779Y-81054580D02*
X104524398Y-81102200D01*
X104524398Y-81102200D02*
X104476779Y-81149819D01*
X104476779Y-81149819D02*
X104429160Y-81102200D01*
X104429160Y-81102200D02*
X104476779Y-81054580D01*
X104476779Y-81054580D02*
X104476779Y-81149819D01*
X104476779Y-80530771D02*
X104524398Y-80578390D01*
X104524398Y-80578390D02*
X104476779Y-80626009D01*
X104476779Y-80626009D02*
X104429160Y-80578390D01*
X104429160Y-80578390D02*
X104476779Y-80530771D01*
X104476779Y-80530771D02*
X104476779Y-80626009D01*
X104857731Y-81530771D02*
X104905350Y-81483152D01*
X104905350Y-81483152D02*
X105000588Y-81340295D01*
X105000588Y-81340295D02*
X105048207Y-81245057D01*
X105048207Y-81245057D02*
X105095826Y-81102200D01*
X105095826Y-81102200D02*
X105143445Y-80864104D01*
X105143445Y-80864104D02*
X105143445Y-80673628D01*
X105143445Y-80673628D02*
X105095826Y-80435533D01*
X105095826Y-80435533D02*
X105048207Y-80292676D01*
X105048207Y-80292676D02*
X105000588Y-80197438D01*
X105000588Y-80197438D02*
X104905350Y-80054580D01*
X104905350Y-80054580D02*
X104857731Y-80006961D01*
X104476779Y-78514580D02*
X104524398Y-78562200D01*
X104524398Y-78562200D02*
X104476779Y-78609819D01*
X104476779Y-78609819D02*
X104429160Y-78562200D01*
X104429160Y-78562200D02*
X104476779Y-78514580D01*
X104476779Y-78514580D02*
X104476779Y-78609819D01*
X104476779Y-77990771D02*
X104524398Y-78038390D01*
X104524398Y-78038390D02*
X104476779Y-78086009D01*
X104476779Y-78086009D02*
X104429160Y-78038390D01*
X104429160Y-78038390D02*
X104476779Y-77990771D01*
X104476779Y-77990771D02*
X104476779Y-78086009D01*
X104857731Y-78990771D02*
X104905350Y-78943152D01*
X104905350Y-78943152D02*
X105000588Y-78800295D01*
X105000588Y-78800295D02*
X105048207Y-78705057D01*
X105048207Y-78705057D02*
X105095826Y-78562200D01*
X105095826Y-78562200D02*
X105143445Y-78324104D01*
X105143445Y-78324104D02*
X105143445Y-78133628D01*
X105143445Y-78133628D02*
X105095826Y-77895533D01*
X105095826Y-77895533D02*
X105048207Y-77752676D01*
X105048207Y-77752676D02*
X105000588Y-77657438D01*
X105000588Y-77657438D02*
X104905350Y-77514580D01*
X104905350Y-77514580D02*
X104857731Y-77466961D01*
X101936779Y-78514580D02*
X101984398Y-78562200D01*
X101984398Y-78562200D02*
X101936779Y-78609819D01*
X101936779Y-78609819D02*
X101889160Y-78562200D01*
X101889160Y-78562200D02*
X101936779Y-78514580D01*
X101936779Y-78514580D02*
X101936779Y-78609819D01*
X101936779Y-77990771D02*
X101984398Y-78038390D01*
X101984398Y-78038390D02*
X101936779Y-78086009D01*
X101936779Y-78086009D02*
X101889160Y-78038390D01*
X101889160Y-78038390D02*
X101936779Y-77990771D01*
X101936779Y-77990771D02*
X101936779Y-78086009D01*
X102317731Y-78990771D02*
X102365350Y-78943152D01*
X102365350Y-78943152D02*
X102460588Y-78800295D01*
X102460588Y-78800295D02*
X102508207Y-78705057D01*
X102508207Y-78705057D02*
X102555826Y-78562200D01*
X102555826Y-78562200D02*
X102603445Y-78324104D01*
X102603445Y-78324104D02*
X102603445Y-78133628D01*
X102603445Y-78133628D02*
X102555826Y-77895533D01*
X102555826Y-77895533D02*
X102508207Y-77752676D01*
X102508207Y-77752676D02*
X102460588Y-77657438D01*
X102460588Y-77657438D02*
X102365350Y-77514580D01*
X102365350Y-77514580D02*
X102317731Y-77466961D01*
X99396779Y-78514580D02*
X99444398Y-78562200D01*
X99444398Y-78562200D02*
X99396779Y-78609819D01*
X99396779Y-78609819D02*
X99349160Y-78562200D01*
X99349160Y-78562200D02*
X99396779Y-78514580D01*
X99396779Y-78514580D02*
X99396779Y-78609819D01*
X99396779Y-77990771D02*
X99444398Y-78038390D01*
X99444398Y-78038390D02*
X99396779Y-78086009D01*
X99396779Y-78086009D02*
X99349160Y-78038390D01*
X99349160Y-78038390D02*
X99396779Y-77990771D01*
X99396779Y-77990771D02*
X99396779Y-78086009D01*
X99777731Y-78990771D02*
X99825350Y-78943152D01*
X99825350Y-78943152D02*
X99920588Y-78800295D01*
X99920588Y-78800295D02*
X99968207Y-78705057D01*
X99968207Y-78705057D02*
X100015826Y-78562200D01*
X100015826Y-78562200D02*
X100063445Y-78324104D01*
X100063445Y-78324104D02*
X100063445Y-78133628D01*
X100063445Y-78133628D02*
X100015826Y-77895533D01*
X100015826Y-77895533D02*
X99968207Y-77752676D01*
X99968207Y-77752676D02*
X99920588Y-77657438D01*
X99920588Y-77657438D02*
X99825350Y-77514580D01*
X99825350Y-77514580D02*
X99777731Y-77466961D01*
X96856779Y-75974580D02*
X96904398Y-76022200D01*
X96904398Y-76022200D02*
X96856779Y-76069819D01*
X96856779Y-76069819D02*
X96809160Y-76022200D01*
X96809160Y-76022200D02*
X96856779Y-75974580D01*
X96856779Y-75974580D02*
X96856779Y-76069819D01*
X96856779Y-75450771D02*
X96904398Y-75498390D01*
X96904398Y-75498390D02*
X96856779Y-75546009D01*
X96856779Y-75546009D02*
X96809160Y-75498390D01*
X96809160Y-75498390D02*
X96856779Y-75450771D01*
X96856779Y-75450771D02*
X96856779Y-75546009D01*
X97237731Y-76450771D02*
X97285350Y-76403152D01*
X97285350Y-76403152D02*
X97380588Y-76260295D01*
X97380588Y-76260295D02*
X97428207Y-76165057D01*
X97428207Y-76165057D02*
X97475826Y-76022200D01*
X97475826Y-76022200D02*
X97523445Y-75784104D01*
X97523445Y-75784104D02*
X97523445Y-75593628D01*
X97523445Y-75593628D02*
X97475826Y-75355533D01*
X97475826Y-75355533D02*
X97428207Y-75212676D01*
X97428207Y-75212676D02*
X97380588Y-75117438D01*
X97380588Y-75117438D02*
X97285350Y-74974580D01*
X97285350Y-74974580D02*
X97237731Y-74926961D01*
X99396779Y-75974580D02*
X99444398Y-76022200D01*
X99444398Y-76022200D02*
X99396779Y-76069819D01*
X99396779Y-76069819D02*
X99349160Y-76022200D01*
X99349160Y-76022200D02*
X99396779Y-75974580D01*
X99396779Y-75974580D02*
X99396779Y-76069819D01*
X99396779Y-75450771D02*
X99444398Y-75498390D01*
X99444398Y-75498390D02*
X99396779Y-75546009D01*
X99396779Y-75546009D02*
X99349160Y-75498390D01*
X99349160Y-75498390D02*
X99396779Y-75450771D01*
X99396779Y-75450771D02*
X99396779Y-75546009D01*
X99777731Y-76450771D02*
X99825350Y-76403152D01*
X99825350Y-76403152D02*
X99920588Y-76260295D01*
X99920588Y-76260295D02*
X99968207Y-76165057D01*
X99968207Y-76165057D02*
X100015826Y-76022200D01*
X100015826Y-76022200D02*
X100063445Y-75784104D01*
X100063445Y-75784104D02*
X100063445Y-75593628D01*
X100063445Y-75593628D02*
X100015826Y-75355533D01*
X100015826Y-75355533D02*
X99968207Y-75212676D01*
X99968207Y-75212676D02*
X99920588Y-75117438D01*
X99920588Y-75117438D02*
X99825350Y-74974580D01*
X99825350Y-74974580D02*
X99777731Y-74926961D01*
X101936779Y-75974580D02*
X101984398Y-76022200D01*
X101984398Y-76022200D02*
X101936779Y-76069819D01*
X101936779Y-76069819D02*
X101889160Y-76022200D01*
X101889160Y-76022200D02*
X101936779Y-75974580D01*
X101936779Y-75974580D02*
X101936779Y-76069819D01*
X101936779Y-75450771D02*
X101984398Y-75498390D01*
X101984398Y-75498390D02*
X101936779Y-75546009D01*
X101936779Y-75546009D02*
X101889160Y-75498390D01*
X101889160Y-75498390D02*
X101936779Y-75450771D01*
X101936779Y-75450771D02*
X101936779Y-75546009D01*
X102317731Y-76450771D02*
X102365350Y-76403152D01*
X102365350Y-76403152D02*
X102460588Y-76260295D01*
X102460588Y-76260295D02*
X102508207Y-76165057D01*
X102508207Y-76165057D02*
X102555826Y-76022200D01*
X102555826Y-76022200D02*
X102603445Y-75784104D01*
X102603445Y-75784104D02*
X102603445Y-75593628D01*
X102603445Y-75593628D02*
X102555826Y-75355533D01*
X102555826Y-75355533D02*
X102508207Y-75212676D01*
X102508207Y-75212676D02*
X102460588Y-75117438D01*
X102460588Y-75117438D02*
X102365350Y-74974580D01*
X102365350Y-74974580D02*
X102317731Y-74926961D01*
X104476779Y-75974580D02*
X104524398Y-76022200D01*
X104524398Y-76022200D02*
X104476779Y-76069819D01*
X104476779Y-76069819D02*
X104429160Y-76022200D01*
X104429160Y-76022200D02*
X104476779Y-75974580D01*
X104476779Y-75974580D02*
X104476779Y-76069819D01*
X104476779Y-75450771D02*
X104524398Y-75498390D01*
X104524398Y-75498390D02*
X104476779Y-75546009D01*
X104476779Y-75546009D02*
X104429160Y-75498390D01*
X104429160Y-75498390D02*
X104476779Y-75450771D01*
X104476779Y-75450771D02*
X104476779Y-75546009D01*
X104857731Y-76450771D02*
X104905350Y-76403152D01*
X104905350Y-76403152D02*
X105000588Y-76260295D01*
X105000588Y-76260295D02*
X105048207Y-76165057D01*
X105048207Y-76165057D02*
X105095826Y-76022200D01*
X105095826Y-76022200D02*
X105143445Y-75784104D01*
X105143445Y-75784104D02*
X105143445Y-75593628D01*
X105143445Y-75593628D02*
X105095826Y-75355533D01*
X105095826Y-75355533D02*
X105048207Y-75212676D01*
X105048207Y-75212676D02*
X105000588Y-75117438D01*
X105000588Y-75117438D02*
X104905350Y-74974580D01*
X104905350Y-74974580D02*
X104857731Y-74926961D01*
X104476779Y-73434580D02*
X104524398Y-73482200D01*
X104524398Y-73482200D02*
X104476779Y-73529819D01*
X104476779Y-73529819D02*
X104429160Y-73482200D01*
X104429160Y-73482200D02*
X104476779Y-73434580D01*
X104476779Y-73434580D02*
X104476779Y-73529819D01*
X104476779Y-72910771D02*
X104524398Y-72958390D01*
X104524398Y-72958390D02*
X104476779Y-73006009D01*
X104476779Y-73006009D02*
X104429160Y-72958390D01*
X104429160Y-72958390D02*
X104476779Y-72910771D01*
X104476779Y-72910771D02*
X104476779Y-73006009D01*
X104857731Y-73910771D02*
X104905350Y-73863152D01*
X104905350Y-73863152D02*
X105000588Y-73720295D01*
X105000588Y-73720295D02*
X105048207Y-73625057D01*
X105048207Y-73625057D02*
X105095826Y-73482200D01*
X105095826Y-73482200D02*
X105143445Y-73244104D01*
X105143445Y-73244104D02*
X105143445Y-73053628D01*
X105143445Y-73053628D02*
X105095826Y-72815533D01*
X105095826Y-72815533D02*
X105048207Y-72672676D01*
X105048207Y-72672676D02*
X105000588Y-72577438D01*
X105000588Y-72577438D02*
X104905350Y-72434580D01*
X104905350Y-72434580D02*
X104857731Y-72386961D01*
X101936779Y-73434580D02*
X101984398Y-73482200D01*
X101984398Y-73482200D02*
X101936779Y-73529819D01*
X101936779Y-73529819D02*
X101889160Y-73482200D01*
X101889160Y-73482200D02*
X101936779Y-73434580D01*
X101936779Y-73434580D02*
X101936779Y-73529819D01*
X101936779Y-72910771D02*
X101984398Y-72958390D01*
X101984398Y-72958390D02*
X101936779Y-73006009D01*
X101936779Y-73006009D02*
X101889160Y-72958390D01*
X101889160Y-72958390D02*
X101936779Y-72910771D01*
X101936779Y-72910771D02*
X101936779Y-73006009D01*
X102317731Y-73910771D02*
X102365350Y-73863152D01*
X102365350Y-73863152D02*
X102460588Y-73720295D01*
X102460588Y-73720295D02*
X102508207Y-73625057D01*
X102508207Y-73625057D02*
X102555826Y-73482200D01*
X102555826Y-73482200D02*
X102603445Y-73244104D01*
X102603445Y-73244104D02*
X102603445Y-73053628D01*
X102603445Y-73053628D02*
X102555826Y-72815533D01*
X102555826Y-72815533D02*
X102508207Y-72672676D01*
X102508207Y-72672676D02*
X102460588Y-72577438D01*
X102460588Y-72577438D02*
X102365350Y-72434580D01*
X102365350Y-72434580D02*
X102317731Y-72386961D01*
X99396779Y-73434580D02*
X99444398Y-73482200D01*
X99444398Y-73482200D02*
X99396779Y-73529819D01*
X99396779Y-73529819D02*
X99349160Y-73482200D01*
X99349160Y-73482200D02*
X99396779Y-73434580D01*
X99396779Y-73434580D02*
X99396779Y-73529819D01*
X99396779Y-72910771D02*
X99444398Y-72958390D01*
X99444398Y-72958390D02*
X99396779Y-73006009D01*
X99396779Y-73006009D02*
X99349160Y-72958390D01*
X99349160Y-72958390D02*
X99396779Y-72910771D01*
X99396779Y-72910771D02*
X99396779Y-73006009D01*
X99777731Y-73910771D02*
X99825350Y-73863152D01*
X99825350Y-73863152D02*
X99920588Y-73720295D01*
X99920588Y-73720295D02*
X99968207Y-73625057D01*
X99968207Y-73625057D02*
X100015826Y-73482200D01*
X100015826Y-73482200D02*
X100063445Y-73244104D01*
X100063445Y-73244104D02*
X100063445Y-73053628D01*
X100063445Y-73053628D02*
X100015826Y-72815533D01*
X100015826Y-72815533D02*
X99968207Y-72672676D01*
X99968207Y-72672676D02*
X99920588Y-72577438D01*
X99920588Y-72577438D02*
X99825350Y-72434580D01*
X99825350Y-72434580D02*
X99777731Y-72386961D01*
X96856779Y-73434580D02*
X96904398Y-73482200D01*
X96904398Y-73482200D02*
X96856779Y-73529819D01*
X96856779Y-73529819D02*
X96809160Y-73482200D01*
X96809160Y-73482200D02*
X96856779Y-73434580D01*
X96856779Y-73434580D02*
X96856779Y-73529819D01*
X96856779Y-72910771D02*
X96904398Y-72958390D01*
X96904398Y-72958390D02*
X96856779Y-73006009D01*
X96856779Y-73006009D02*
X96809160Y-72958390D01*
X96809160Y-72958390D02*
X96856779Y-72910771D01*
X96856779Y-72910771D02*
X96856779Y-73006009D01*
X97237731Y-73910771D02*
X97285350Y-73863152D01*
X97285350Y-73863152D02*
X97380588Y-73720295D01*
X97380588Y-73720295D02*
X97428207Y-73625057D01*
X97428207Y-73625057D02*
X97475826Y-73482200D01*
X97475826Y-73482200D02*
X97523445Y-73244104D01*
X97523445Y-73244104D02*
X97523445Y-73053628D01*
X97523445Y-73053628D02*
X97475826Y-72815533D01*
X97475826Y-72815533D02*
X97428207Y-72672676D01*
X97428207Y-72672676D02*
X97380588Y-72577438D01*
X97380588Y-72577438D02*
X97285350Y-72434580D01*
X97285350Y-72434580D02*
X97237731Y-72386961D01*
X96856779Y-70894580D02*
X96904398Y-70942200D01*
X96904398Y-70942200D02*
X96856779Y-70989819D01*
X96856779Y-70989819D02*
X96809160Y-70942200D01*
X96809160Y-70942200D02*
X96856779Y-70894580D01*
X96856779Y-70894580D02*
X96856779Y-70989819D01*
X96856779Y-70370771D02*
X96904398Y-70418390D01*
X96904398Y-70418390D02*
X96856779Y-70466009D01*
X96856779Y-70466009D02*
X96809160Y-70418390D01*
X96809160Y-70418390D02*
X96856779Y-70370771D01*
X96856779Y-70370771D02*
X96856779Y-70466009D01*
X97237731Y-71370771D02*
X97285350Y-71323152D01*
X97285350Y-71323152D02*
X97380588Y-71180295D01*
X97380588Y-71180295D02*
X97428207Y-71085057D01*
X97428207Y-71085057D02*
X97475826Y-70942200D01*
X97475826Y-70942200D02*
X97523445Y-70704104D01*
X97523445Y-70704104D02*
X97523445Y-70513628D01*
X97523445Y-70513628D02*
X97475826Y-70275533D01*
X97475826Y-70275533D02*
X97428207Y-70132676D01*
X97428207Y-70132676D02*
X97380588Y-70037438D01*
X97380588Y-70037438D02*
X97285350Y-69894580D01*
X97285350Y-69894580D02*
X97237731Y-69846961D01*
X99396779Y-70894580D02*
X99444398Y-70942200D01*
X99444398Y-70942200D02*
X99396779Y-70989819D01*
X99396779Y-70989819D02*
X99349160Y-70942200D01*
X99349160Y-70942200D02*
X99396779Y-70894580D01*
X99396779Y-70894580D02*
X99396779Y-70989819D01*
X99396779Y-70370771D02*
X99444398Y-70418390D01*
X99444398Y-70418390D02*
X99396779Y-70466009D01*
X99396779Y-70466009D02*
X99349160Y-70418390D01*
X99349160Y-70418390D02*
X99396779Y-70370771D01*
X99396779Y-70370771D02*
X99396779Y-70466009D01*
X99777731Y-71370771D02*
X99825350Y-71323152D01*
X99825350Y-71323152D02*
X99920588Y-71180295D01*
X99920588Y-71180295D02*
X99968207Y-71085057D01*
X99968207Y-71085057D02*
X100015826Y-70942200D01*
X100015826Y-70942200D02*
X100063445Y-70704104D01*
X100063445Y-70704104D02*
X100063445Y-70513628D01*
X100063445Y-70513628D02*
X100015826Y-70275533D01*
X100015826Y-70275533D02*
X99968207Y-70132676D01*
X99968207Y-70132676D02*
X99920588Y-70037438D01*
X99920588Y-70037438D02*
X99825350Y-69894580D01*
X99825350Y-69894580D02*
X99777731Y-69846961D01*
X101936779Y-70894580D02*
X101984398Y-70942200D01*
X101984398Y-70942200D02*
X101936779Y-70989819D01*
X101936779Y-70989819D02*
X101889160Y-70942200D01*
X101889160Y-70942200D02*
X101936779Y-70894580D01*
X101936779Y-70894580D02*
X101936779Y-70989819D01*
X101936779Y-70370771D02*
X101984398Y-70418390D01*
X101984398Y-70418390D02*
X101936779Y-70466009D01*
X101936779Y-70466009D02*
X101889160Y-70418390D01*
X101889160Y-70418390D02*
X101936779Y-70370771D01*
X101936779Y-70370771D02*
X101936779Y-70466009D01*
X102317731Y-71370771D02*
X102365350Y-71323152D01*
X102365350Y-71323152D02*
X102460588Y-71180295D01*
X102460588Y-71180295D02*
X102508207Y-71085057D01*
X102508207Y-71085057D02*
X102555826Y-70942200D01*
X102555826Y-70942200D02*
X102603445Y-70704104D01*
X102603445Y-70704104D02*
X102603445Y-70513628D01*
X102603445Y-70513628D02*
X102555826Y-70275533D01*
X102555826Y-70275533D02*
X102508207Y-70132676D01*
X102508207Y-70132676D02*
X102460588Y-70037438D01*
X102460588Y-70037438D02*
X102365350Y-69894580D01*
X102365350Y-69894580D02*
X102317731Y-69846961D01*
X104476779Y-70894580D02*
X104524398Y-70942200D01*
X104524398Y-70942200D02*
X104476779Y-70989819D01*
X104476779Y-70989819D02*
X104429160Y-70942200D01*
X104429160Y-70942200D02*
X104476779Y-70894580D01*
X104476779Y-70894580D02*
X104476779Y-70989819D01*
X104476779Y-70370771D02*
X104524398Y-70418390D01*
X104524398Y-70418390D02*
X104476779Y-70466009D01*
X104476779Y-70466009D02*
X104429160Y-70418390D01*
X104429160Y-70418390D02*
X104476779Y-70370771D01*
X104476779Y-70370771D02*
X104476779Y-70466009D01*
X104857731Y-71370771D02*
X104905350Y-71323152D01*
X104905350Y-71323152D02*
X105000588Y-71180295D01*
X105000588Y-71180295D02*
X105048207Y-71085057D01*
X105048207Y-71085057D02*
X105095826Y-70942200D01*
X105095826Y-70942200D02*
X105143445Y-70704104D01*
X105143445Y-70704104D02*
X105143445Y-70513628D01*
X105143445Y-70513628D02*
X105095826Y-70275533D01*
X105095826Y-70275533D02*
X105048207Y-70132676D01*
X105048207Y-70132676D02*
X105000588Y-70037438D01*
X105000588Y-70037438D02*
X104905350Y-69894580D01*
X104905350Y-69894580D02*
X104857731Y-69846961D01*
X104476779Y-68354580D02*
X104524398Y-68402200D01*
X104524398Y-68402200D02*
X104476779Y-68449819D01*
X104476779Y-68449819D02*
X104429160Y-68402200D01*
X104429160Y-68402200D02*
X104476779Y-68354580D01*
X104476779Y-68354580D02*
X104476779Y-68449819D01*
X104476779Y-67830771D02*
X104524398Y-67878390D01*
X104524398Y-67878390D02*
X104476779Y-67926009D01*
X104476779Y-67926009D02*
X104429160Y-67878390D01*
X104429160Y-67878390D02*
X104476779Y-67830771D01*
X104476779Y-67830771D02*
X104476779Y-67926009D01*
X104857731Y-68830771D02*
X104905350Y-68783152D01*
X104905350Y-68783152D02*
X105000588Y-68640295D01*
X105000588Y-68640295D02*
X105048207Y-68545057D01*
X105048207Y-68545057D02*
X105095826Y-68402200D01*
X105095826Y-68402200D02*
X105143445Y-68164104D01*
X105143445Y-68164104D02*
X105143445Y-67973628D01*
X105143445Y-67973628D02*
X105095826Y-67735533D01*
X105095826Y-67735533D02*
X105048207Y-67592676D01*
X105048207Y-67592676D02*
X105000588Y-67497438D01*
X105000588Y-67497438D02*
X104905350Y-67354580D01*
X104905350Y-67354580D02*
X104857731Y-67306961D01*
X101936779Y-68354580D02*
X101984398Y-68402200D01*
X101984398Y-68402200D02*
X101936779Y-68449819D01*
X101936779Y-68449819D02*
X101889160Y-68402200D01*
X101889160Y-68402200D02*
X101936779Y-68354580D01*
X101936779Y-68354580D02*
X101936779Y-68449819D01*
X101936779Y-67830771D02*
X101984398Y-67878390D01*
X101984398Y-67878390D02*
X101936779Y-67926009D01*
X101936779Y-67926009D02*
X101889160Y-67878390D01*
X101889160Y-67878390D02*
X101936779Y-67830771D01*
X101936779Y-67830771D02*
X101936779Y-67926009D01*
X102317731Y-68830771D02*
X102365350Y-68783152D01*
X102365350Y-68783152D02*
X102460588Y-68640295D01*
X102460588Y-68640295D02*
X102508207Y-68545057D01*
X102508207Y-68545057D02*
X102555826Y-68402200D01*
X102555826Y-68402200D02*
X102603445Y-68164104D01*
X102603445Y-68164104D02*
X102603445Y-67973628D01*
X102603445Y-67973628D02*
X102555826Y-67735533D01*
X102555826Y-67735533D02*
X102508207Y-67592676D01*
X102508207Y-67592676D02*
X102460588Y-67497438D01*
X102460588Y-67497438D02*
X102365350Y-67354580D01*
X102365350Y-67354580D02*
X102317731Y-67306961D01*
X99396779Y-68354580D02*
X99444398Y-68402200D01*
X99444398Y-68402200D02*
X99396779Y-68449819D01*
X99396779Y-68449819D02*
X99349160Y-68402200D01*
X99349160Y-68402200D02*
X99396779Y-68354580D01*
X99396779Y-68354580D02*
X99396779Y-68449819D01*
X99396779Y-67830771D02*
X99444398Y-67878390D01*
X99444398Y-67878390D02*
X99396779Y-67926009D01*
X99396779Y-67926009D02*
X99349160Y-67878390D01*
X99349160Y-67878390D02*
X99396779Y-67830771D01*
X99396779Y-67830771D02*
X99396779Y-67926009D01*
X99777731Y-68830771D02*
X99825350Y-68783152D01*
X99825350Y-68783152D02*
X99920588Y-68640295D01*
X99920588Y-68640295D02*
X99968207Y-68545057D01*
X99968207Y-68545057D02*
X100015826Y-68402200D01*
X100015826Y-68402200D02*
X100063445Y-68164104D01*
X100063445Y-68164104D02*
X100063445Y-67973628D01*
X100063445Y-67973628D02*
X100015826Y-67735533D01*
X100015826Y-67735533D02*
X99968207Y-67592676D01*
X99968207Y-67592676D02*
X99920588Y-67497438D01*
X99920588Y-67497438D02*
X99825350Y-67354580D01*
X99825350Y-67354580D02*
X99777731Y-67306961D01*
X96856779Y-68354580D02*
X96904398Y-68402200D01*
X96904398Y-68402200D02*
X96856779Y-68449819D01*
X96856779Y-68449819D02*
X96809160Y-68402200D01*
X96809160Y-68402200D02*
X96856779Y-68354580D01*
X96856779Y-68354580D02*
X96856779Y-68449819D01*
X96856779Y-67830771D02*
X96904398Y-67878390D01*
X96904398Y-67878390D02*
X96856779Y-67926009D01*
X96856779Y-67926009D02*
X96809160Y-67878390D01*
X96809160Y-67878390D02*
X96856779Y-67830771D01*
X96856779Y-67830771D02*
X96856779Y-67926009D01*
X97237731Y-68830771D02*
X97285350Y-68783152D01*
X97285350Y-68783152D02*
X97380588Y-68640295D01*
X97380588Y-68640295D02*
X97428207Y-68545057D01*
X97428207Y-68545057D02*
X97475826Y-68402200D01*
X97475826Y-68402200D02*
X97523445Y-68164104D01*
X97523445Y-68164104D02*
X97523445Y-67973628D01*
X97523445Y-67973628D02*
X97475826Y-67735533D01*
X97475826Y-67735533D02*
X97428207Y-67592676D01*
X97428207Y-67592676D02*
X97380588Y-67497438D01*
X97380588Y-67497438D02*
X97285350Y-67354580D01*
X97285350Y-67354580D02*
X97237731Y-67306961D01*
X67246666Y-100594819D02*
X66913333Y-100118628D01*
X66675238Y-100594819D02*
X66675238Y-99594819D01*
X66675238Y-99594819D02*
X67056190Y-99594819D01*
X67056190Y-99594819D02*
X67151428Y-99642438D01*
X67151428Y-99642438D02*
X67199047Y-99690057D01*
X67199047Y-99690057D02*
X67246666Y-99785295D01*
X67246666Y-99785295D02*
X67246666Y-99928152D01*
X67246666Y-99928152D02*
X67199047Y-100023390D01*
X67199047Y-100023390D02*
X67151428Y-100071009D01*
X67151428Y-100071009D02*
X67056190Y-100118628D01*
X67056190Y-100118628D02*
X66675238Y-100118628D01*
X67675238Y-100071009D02*
X68008571Y-100071009D01*
X68151428Y-100594819D02*
X67675238Y-100594819D01*
X67675238Y-100594819D02*
X67675238Y-99594819D01*
X67675238Y-99594819D02*
X68151428Y-99594819D01*
X68913333Y-100071009D02*
X68580000Y-100071009D01*
X68580000Y-100594819D02*
X68580000Y-99594819D01*
X68580000Y-99594819D02*
X69056190Y-99594819D01*
X69580000Y-99594819D02*
X69580000Y-99832914D01*
X69341905Y-99737676D02*
X69580000Y-99832914D01*
X69580000Y-99832914D02*
X69818095Y-99737676D01*
X69437143Y-100023390D02*
X69580000Y-99832914D01*
X69580000Y-99832914D02*
X69722857Y-100023390D01*
X70341905Y-99594819D02*
X70341905Y-99832914D01*
X70103810Y-99737676D02*
X70341905Y-99832914D01*
X70341905Y-99832914D02*
X70580000Y-99737676D01*
X70199048Y-100023390D02*
X70341905Y-99832914D01*
X70341905Y-99832914D02*
X70484762Y-100023390D01*
X88203095Y-77969819D02*
X88203095Y-78779342D01*
X88203095Y-78779342D02*
X88250714Y-78874580D01*
X88250714Y-78874580D02*
X88298333Y-78922200D01*
X88298333Y-78922200D02*
X88393571Y-78969819D01*
X88393571Y-78969819D02*
X88584047Y-78969819D01*
X88584047Y-78969819D02*
X88679285Y-78922200D01*
X88679285Y-78922200D02*
X88726904Y-78874580D01*
X88726904Y-78874580D02*
X88774523Y-78779342D01*
X88774523Y-78779342D02*
X88774523Y-77969819D01*
X89774523Y-78969819D02*
X89203095Y-78969819D01*
X89488809Y-78969819D02*
X89488809Y-77969819D01*
X89488809Y-77969819D02*
X89393571Y-78112676D01*
X89393571Y-78112676D02*
X89298333Y-78207914D01*
X89298333Y-78207914D02*
X89203095Y-78255533D01*
X94813333Y-106244819D02*
X94480000Y-105768628D01*
X94241905Y-106244819D02*
X94241905Y-105244819D01*
X94241905Y-105244819D02*
X94622857Y-105244819D01*
X94622857Y-105244819D02*
X94718095Y-105292438D01*
X94718095Y-105292438D02*
X94765714Y-105340057D01*
X94765714Y-105340057D02*
X94813333Y-105435295D01*
X94813333Y-105435295D02*
X94813333Y-105578152D01*
X94813333Y-105578152D02*
X94765714Y-105673390D01*
X94765714Y-105673390D02*
X94718095Y-105721009D01*
X94718095Y-105721009D02*
X94622857Y-105768628D01*
X94622857Y-105768628D02*
X94241905Y-105768628D01*
X95670476Y-105578152D02*
X95670476Y-106244819D01*
X95432381Y-105197200D02*
X95194286Y-105911485D01*
X95194286Y-105911485D02*
X95813333Y-105911485D01*
X92813333Y-95324819D02*
X92480000Y-94848628D01*
X92241905Y-95324819D02*
X92241905Y-94324819D01*
X92241905Y-94324819D02*
X92622857Y-94324819D01*
X92622857Y-94324819D02*
X92718095Y-94372438D01*
X92718095Y-94372438D02*
X92765714Y-94420057D01*
X92765714Y-94420057D02*
X92813333Y-94515295D01*
X92813333Y-94515295D02*
X92813333Y-94658152D01*
X92813333Y-94658152D02*
X92765714Y-94753390D01*
X92765714Y-94753390D02*
X92718095Y-94801009D01*
X92718095Y-94801009D02*
X92622857Y-94848628D01*
X92622857Y-94848628D02*
X92241905Y-94848628D01*
X93146667Y-94324819D02*
X93765714Y-94324819D01*
X93765714Y-94324819D02*
X93432381Y-94705771D01*
X93432381Y-94705771D02*
X93575238Y-94705771D01*
X93575238Y-94705771D02*
X93670476Y-94753390D01*
X93670476Y-94753390D02*
X93718095Y-94801009D01*
X93718095Y-94801009D02*
X93765714Y-94896247D01*
X93765714Y-94896247D02*
X93765714Y-95134342D01*
X93765714Y-95134342D02*
X93718095Y-95229580D01*
X93718095Y-95229580D02*
X93670476Y-95277200D01*
X93670476Y-95277200D02*
X93575238Y-95324819D01*
X93575238Y-95324819D02*
X93289524Y-95324819D01*
X93289524Y-95324819D02*
X93194286Y-95277200D01*
X93194286Y-95277200D02*
X93146667Y-95229580D01*
X70684819Y-83986666D02*
X70208628Y-84319999D01*
X70684819Y-84558094D02*
X69684819Y-84558094D01*
X69684819Y-84558094D02*
X69684819Y-84177142D01*
X69684819Y-84177142D02*
X69732438Y-84081904D01*
X69732438Y-84081904D02*
X69780057Y-84034285D01*
X69780057Y-84034285D02*
X69875295Y-83986666D01*
X69875295Y-83986666D02*
X70018152Y-83986666D01*
X70018152Y-83986666D02*
X70113390Y-84034285D01*
X70113390Y-84034285D02*
X70161009Y-84081904D01*
X70161009Y-84081904D02*
X70208628Y-84177142D01*
X70208628Y-84177142D02*
X70208628Y-84558094D01*
X69780057Y-83605713D02*
X69732438Y-83558094D01*
X69732438Y-83558094D02*
X69684819Y-83462856D01*
X69684819Y-83462856D02*
X69684819Y-83224761D01*
X69684819Y-83224761D02*
X69732438Y-83129523D01*
X69732438Y-83129523D02*
X69780057Y-83081904D01*
X69780057Y-83081904D02*
X69875295Y-83034285D01*
X69875295Y-83034285D02*
X69970533Y-83034285D01*
X69970533Y-83034285D02*
X70113390Y-83081904D01*
X70113390Y-83081904D02*
X70684819Y-83653332D01*
X70684819Y-83653332D02*
X70684819Y-83034285D01*
X70684819Y-76366666D02*
X70208628Y-76699999D01*
X70684819Y-76938094D02*
X69684819Y-76938094D01*
X69684819Y-76938094D02*
X69684819Y-76557142D01*
X69684819Y-76557142D02*
X69732438Y-76461904D01*
X69732438Y-76461904D02*
X69780057Y-76414285D01*
X69780057Y-76414285D02*
X69875295Y-76366666D01*
X69875295Y-76366666D02*
X70018152Y-76366666D01*
X70018152Y-76366666D02*
X70113390Y-76414285D01*
X70113390Y-76414285D02*
X70161009Y-76461904D01*
X70161009Y-76461904D02*
X70208628Y-76557142D01*
X70208628Y-76557142D02*
X70208628Y-76938094D01*
X70684819Y-75414285D02*
X70684819Y-75985713D01*
X70684819Y-75699999D02*
X69684819Y-75699999D01*
X69684819Y-75699999D02*
X69827676Y-75795237D01*
X69827676Y-75795237D02*
X69922914Y-75890475D01*
X69922914Y-75890475D02*
X69970533Y-75985713D01*
X87316666Y-62674819D02*
X87316666Y-63389104D01*
X87316666Y-63389104D02*
X87269047Y-63531961D01*
X87269047Y-63531961D02*
X87173809Y-63627200D01*
X87173809Y-63627200D02*
X87030952Y-63674819D01*
X87030952Y-63674819D02*
X86935714Y-63674819D01*
X88316666Y-63674819D02*
X87745238Y-63674819D01*
X88030952Y-63674819D02*
X88030952Y-62674819D01*
X88030952Y-62674819D02*
X87935714Y-62817676D01*
X87935714Y-62817676D02*
X87840476Y-62912914D01*
X87840476Y-62912914D02*
X87745238Y-62960533D01*
X84134405Y-102774819D02*
X84134405Y-101774819D01*
X84134405Y-101774819D02*
X84372500Y-101774819D01*
X84372500Y-101774819D02*
X84515357Y-101822438D01*
X84515357Y-101822438D02*
X84610595Y-101917676D01*
X84610595Y-101917676D02*
X84658214Y-102012914D01*
X84658214Y-102012914D02*
X84705833Y-102203390D01*
X84705833Y-102203390D02*
X84705833Y-102346247D01*
X84705833Y-102346247D02*
X84658214Y-102536723D01*
X84658214Y-102536723D02*
X84610595Y-102631961D01*
X84610595Y-102631961D02*
X84515357Y-102727200D01*
X84515357Y-102727200D02*
X84372500Y-102774819D01*
X84372500Y-102774819D02*
X84134405Y-102774819D01*
X85086786Y-101870057D02*
X85134405Y-101822438D01*
X85134405Y-101822438D02*
X85229643Y-101774819D01*
X85229643Y-101774819D02*
X85467738Y-101774819D01*
X85467738Y-101774819D02*
X85562976Y-101822438D01*
X85562976Y-101822438D02*
X85610595Y-101870057D01*
X85610595Y-101870057D02*
X85658214Y-101965295D01*
X85658214Y-101965295D02*
X85658214Y-102060533D01*
X85658214Y-102060533D02*
X85610595Y-102203390D01*
X85610595Y-102203390D02*
X85039167Y-102774819D01*
X85039167Y-102774819D02*
X85658214Y-102774819D01*
X84569405Y-98794819D02*
X84569405Y-97794819D01*
X84569405Y-97794819D02*
X84807500Y-97794819D01*
X84807500Y-97794819D02*
X84950357Y-97842438D01*
X84950357Y-97842438D02*
X85045595Y-97937676D01*
X85045595Y-97937676D02*
X85093214Y-98032914D01*
X85093214Y-98032914D02*
X85140833Y-98223390D01*
X85140833Y-98223390D02*
X85140833Y-98366247D01*
X85140833Y-98366247D02*
X85093214Y-98556723D01*
X85093214Y-98556723D02*
X85045595Y-98651961D01*
X85045595Y-98651961D02*
X84950357Y-98747200D01*
X84950357Y-98747200D02*
X84807500Y-98794819D01*
X84807500Y-98794819D02*
X84569405Y-98794819D01*
X86093214Y-98794819D02*
X85521786Y-98794819D01*
X85807500Y-98794819D02*
X85807500Y-97794819D01*
X85807500Y-97794819D02*
X85712262Y-97937676D01*
X85712262Y-97937676D02*
X85617024Y-98032914D01*
X85617024Y-98032914D02*
X85521786Y-98080533D01*
X76033333Y-106179580D02*
X75985714Y-106227200D01*
X75985714Y-106227200D02*
X75842857Y-106274819D01*
X75842857Y-106274819D02*
X75747619Y-106274819D01*
X75747619Y-106274819D02*
X75604762Y-106227200D01*
X75604762Y-106227200D02*
X75509524Y-106131961D01*
X75509524Y-106131961D02*
X75461905Y-106036723D01*
X75461905Y-106036723D02*
X75414286Y-105846247D01*
X75414286Y-105846247D02*
X75414286Y-105703390D01*
X75414286Y-105703390D02*
X75461905Y-105512914D01*
X75461905Y-105512914D02*
X75509524Y-105417676D01*
X75509524Y-105417676D02*
X75604762Y-105322438D01*
X75604762Y-105322438D02*
X75747619Y-105274819D01*
X75747619Y-105274819D02*
X75842857Y-105274819D01*
X75842857Y-105274819D02*
X75985714Y-105322438D01*
X75985714Y-105322438D02*
X76033333Y-105370057D01*
X76414286Y-105370057D02*
X76461905Y-105322438D01*
X76461905Y-105322438D02*
X76557143Y-105274819D01*
X76557143Y-105274819D02*
X76795238Y-105274819D01*
X76795238Y-105274819D02*
X76890476Y-105322438D01*
X76890476Y-105322438D02*
X76938095Y-105370057D01*
X76938095Y-105370057D02*
X76985714Y-105465295D01*
X76985714Y-105465295D02*
X76985714Y-105560533D01*
X76985714Y-105560533D02*
X76938095Y-105703390D01*
X76938095Y-105703390D02*
X76366667Y-106274819D01*
X76366667Y-106274819D02*
X76985714Y-106274819D01*
X69515833Y-92589580D02*
X69468214Y-92637200D01*
X69468214Y-92637200D02*
X69325357Y-92684819D01*
X69325357Y-92684819D02*
X69230119Y-92684819D01*
X69230119Y-92684819D02*
X69087262Y-92637200D01*
X69087262Y-92637200D02*
X68992024Y-92541961D01*
X68992024Y-92541961D02*
X68944405Y-92446723D01*
X68944405Y-92446723D02*
X68896786Y-92256247D01*
X68896786Y-92256247D02*
X68896786Y-92113390D01*
X68896786Y-92113390D02*
X68944405Y-91922914D01*
X68944405Y-91922914D02*
X68992024Y-91827676D01*
X68992024Y-91827676D02*
X69087262Y-91732438D01*
X69087262Y-91732438D02*
X69230119Y-91684819D01*
X69230119Y-91684819D02*
X69325357Y-91684819D01*
X69325357Y-91684819D02*
X69468214Y-91732438D01*
X69468214Y-91732438D02*
X69515833Y-91780057D01*
X70468214Y-92684819D02*
X69896786Y-92684819D01*
X70182500Y-92684819D02*
X70182500Y-91684819D01*
X70182500Y-91684819D02*
X70087262Y-91827676D01*
X70087262Y-91827676D02*
X69992024Y-91922914D01*
X69992024Y-91922914D02*
X69896786Y-91970533D01*
D11*
%TO.C,U1*%
X88965000Y-84475000D02*
X90915000Y-84475000D01*
X88965000Y-84475000D02*
X87015000Y-84475000D01*
X88965000Y-79355000D02*
X85515000Y-79355000D01*
X88965000Y-79355000D02*
X90915000Y-79355000D01*
%TO.C,R4*%
X95207064Y-104875000D02*
X94752936Y-104875000D01*
X95207064Y-103405000D02*
X94752936Y-103405000D01*
%TO.C,R3*%
X92752936Y-95785000D02*
X93207064Y-95785000D01*
X92752936Y-97255000D02*
X93207064Y-97255000D01*
%TO.C,R2*%
X67845000Y-83592936D02*
X67845000Y-84047064D01*
X69315000Y-83592936D02*
X69315000Y-84047064D01*
%TO.C,R1*%
X67845000Y-75972936D02*
X67845000Y-76427064D01*
X69315000Y-75972936D02*
X69315000Y-76427064D01*
%TO.C,J1*%
X88580000Y-69530000D02*
X88580000Y-66110000D01*
X85010000Y-70530000D02*
X85010000Y-72730000D01*
X91510000Y-65530000D02*
X90290000Y-65530000D01*
X86720000Y-66110000D02*
X86720000Y-69530000D01*
X85010000Y-70530000D02*
X83790000Y-70530000D01*
X90290000Y-70530000D02*
X91510000Y-70530000D01*
X86720000Y-69530000D02*
X86400000Y-69530000D01*
X83790000Y-72730000D02*
X83790000Y-64310000D01*
X86080000Y-66110000D02*
X86400000Y-66030000D01*
X88580000Y-66110000D02*
X88900000Y-66030000D01*
X83790000Y-64310000D02*
X91510000Y-64310000D01*
X91510000Y-72730000D02*
X90290000Y-72730000D01*
X88900000Y-69530000D02*
X88580000Y-69530000D01*
X85010000Y-72730000D02*
X83790000Y-72730000D01*
X86400000Y-66030000D02*
X86720000Y-66110000D01*
X86700000Y-73220000D02*
X86400000Y-72620000D01*
X86080000Y-69530000D02*
X86080000Y-66110000D01*
X86100000Y-73220000D02*
X86700000Y-73220000D01*
X86400000Y-69530000D02*
X86080000Y-69530000D01*
X83790000Y-65530000D02*
X85010000Y-65530000D01*
X85010000Y-65530000D02*
X85010000Y-70530000D01*
X91510000Y-64310000D02*
X91510000Y-72730000D01*
X86400000Y-72620000D02*
X86100000Y-73220000D01*
X87570000Y-70530000D02*
X87730000Y-70530000D01*
X89220000Y-69530000D02*
X88900000Y-69530000D01*
X88900000Y-66030000D02*
X89220000Y-66110000D01*
X90290000Y-72730000D02*
X90290000Y-70530000D01*
X85010000Y-69530000D02*
X90290000Y-69530000D01*
X90290000Y-65530000D02*
X90290000Y-70530000D01*
X89220000Y-66110000D02*
X89220000Y-69530000D01*
%TO.C,D2*%
X86472500Y-103005000D02*
X82412500Y-103005000D01*
X82412500Y-103005000D02*
X82412500Y-105275000D01*
X82412500Y-105275000D02*
X86472500Y-105275000D01*
%TO.C,D1*%
X83707500Y-97655000D02*
X87767500Y-97655000D01*
X87767500Y-97655000D02*
X87767500Y-95385000D01*
X87767500Y-95385000D02*
X83707500Y-95385000D01*
%TO.C,C2*%
X76461252Y-103405000D02*
X75938748Y-103405000D01*
X76461252Y-104875000D02*
X75938748Y-104875000D01*
%TO.C,C1*%
X67197500Y-94915000D02*
X71282500Y-94915000D01*
X71282500Y-93045000D02*
X67197500Y-93045000D01*
X67197500Y-93045000D02*
X67197500Y-94915000D01*
%TD*%
M02*
